<svg id="GoldeneyeDeployableArchitecture" xmlns="http://www.w3.org/2000/svg" viewBox="0 0 32 32"><defs><linearGradient id="7jeono82ba" x1="-3162" y1="21" x2="-3189" y2="21" gradientTransform="matrix(1 0 0 -1 3189 42)" gradientUnits="userSpaceOnUse"><stop offset=".172" stop-opacity="0"/><stop offset=".6"/></linearGradient><linearGradient id="cyteubrb4c" x1="1952" y1="32" x2="1984" y2="0" gradientTransform="translate(-1952)" gradientUnits="userSpaceOnUse"><stop offset=".1" stop-color="#a56eff"/><stop offset=".9" stop-color="#0f62fe"/></linearGradient><mask id="01igeuexsb" x="0" y="0" width="32" height="32" maskUnits="userSpaceOnUse"><path d="M16 27C9.791 27 3.399 22.497 1.13 16.526l-.064-.166a1 1 0 0 1 1.866-.72l.066.171C4.989 21.052 10.577 25 15.999 25s11.011-3.948 13-9.184l.065-.171a1 1 0 0 1 1.87.71l-.065.171C28.601 22.497 22.209 27 16 27z" style="fill:#fff"/><path transform="rotate(180 13.5 21)" style="fill:url(#7jeono82ba)" d="M0 14h27v14H0z"/><path d="M26 14h6v14h-6z"/><path d="m29.066 16.357-.065-.171c-1.99-5.238-7.578-9.187-13-9.187s-11.011 3.948-13 9.184l-.066.173a1 1 0 1 1-1.869-.715l.065-.171C3.398 9.501 9.791 4.998 16 4.998s12.602 4.503 14.87 10.474l.064.168" style="fill:#fff"/></mask></defs><path d="M16 14a2 2 0 1 0-.001 3.999A2 2 0 0 0 16 14zM28 2a2 2 0 1 0-.001 3.999A2 2 0 0 0 28 2zM4 2a2 2 0 1 0-.001 3.999A2 2 0 0 0 4 2z" style="fill:#001d6c"/><path d="M16 10c-3.309 0-6 2.691-6 6s2.691 6 6 6 6-2.691 6-6-2.691-6-6-6zm0 10c-2.206 0-4-1.794-4-4s1.794-4 4-4 4 1.794 4 4-1.794 4-4 4zM4.01 26a2 2 0 1 0-.001 3.999A2 2 0 0 0 4.01 26zM29 23v3.574c0 .769-.449 1.479-1.145 1.808l-.855.405-.856-.405A2.008 2.008 0 0 1 25 26.575v-3.574h4m2-2h-8v5.574c0 1.538.898 2.958 2.289 3.615l1.711.811 1.711-.811A4.016 4.016 0 0 0 31 26.575v-5.574z" style="fill:#001d6c"/><g style="mask:url(#01igeuexsb)"><path style="fill:url(#cyteubrb4c)" d="M0 0h32v32H0z"/></g></svg>