<svg xmlns:xlink="http://www.w3.org/1999/xlink" xmlns="http://www.w3.org/2000/svg" class="pal--kubernetes-icon pal--kubernetes-icon--dark-color" viewBox="0 0 32 32" width="300" height="300"><defs><linearGradient id="iks-icon-2-linear-gradient-jckdu3cfkp" x1="28" y1="22" x2="28" y2="11" gradientUnits="userSpaceOnUse"><stop offset="0" stop-opacity="0"></stop><stop offset="0.9"></stop></linearGradient><mask id="iks-icon-2-mask-jckdu3cfkp" x="0" y="0" width="32" height="32" maskUnits="userSpaceOnUse"><path d="M16,31a.9.9,0,0,1-.5-.14l-12-7A1,1,0,0,1,3,23V9a1,1,0,0,1,.5-.86l12-7a1,1,0,0,1,1,0l12,7-1,1.72L16,3.16,5,9.57V22.43l11,6.41,11-6.41V12h2V23a1,1,0,0,1-.5.86l-12,7A.9.9,0,0,1,16,31Z" style="fill: rgb(255, 255, 255);"></path><rect x="26" y="11" width="4" height="11" style="fill: url(&quot;#iks-icon-2-linear-gradient-jckdu3cfkp&quot;);"></rect></mask><linearGradient id="iks-icon-2-linear-gradient-2-jckdu3cfkp" x1="-5763" y1="-1919" x2="-5731" y2="-1951" gradientTransform="matrix(1, 0, 0, -1, 5763, -1919)" gradientUnits="userSpaceOnUse"><stop offset="0.1" stop-color="#3ddbd9"></stop><stop offset="0.9" stop-color="#4589ff"></stop></linearGradient><linearGradient id="iks-icon-2-linear-gradient-2-jckdu3cfkp" x1="-5763" y1="-1919" x2="-5731" y2="-1951" gradientTransform="matrix(1, 0, 0, -1, 5763, -1919)" gradientUnits="userSpaceOnUse"><stop offset="0.1" stop-color="#3ddbd9"></stop><stop offset="0.9" stop-color="#4589ff"></stop></linearGradient></defs><g><g style="mask: url(&quot;#iks-icon-2-mask-jckdu3cfkp&quot;);"><rect width="32" height="32" transform="translate(0 32) rotate(-90)" style="" fill="url(&quot;#iks-icon-2-linear-gradient-2-jckdu3cfkp&quot;)"></rect></g><g><path d="M16,23a1,1,0,0,1-.51-.14l-5-3A1,1,0,0,1,10,19V13a1,1,0,0,1,.49-.86l5-3a1,1,0,0,1,1,0l5,3A1,1,0,0,1,22,13v6a1,1,0,0,1-.49.86l-5,3A1,1,0,0,1,16,23Zm-4-4.57,4,2.4,4-2.4V13.57l-4-2.4-4,2.4Z" style="" fill="#F4F4F4"></path></g></g></svg>