<svg width="1273" height="611" viewBox="0 0 1273 611" fill="none" xmlns="http://www.w3.org/2000/svg">
<rect width="56.9939" height="56.9939" fill="white" fill-opacity="0.01" style="mix-blend-mode:multiply"/>
<circle cx="28.4969" cy="28.4969" r="28.4969" fill="black"/>
<rect width="24" height="24" transform="translate(16 16.8127)" fill="white" fill-opacity="0.01" style="mix-blend-mode:multiply"/>
<path d="M28 19.8127C28.7417 19.8127 29.4667 20.0327 30.0834 20.4447C30.7001 20.8568 31.1807 21.4425 31.4645 22.1277C31.7484 22.8129 31.8226 23.5669 31.6779 24.2943C31.5333 25.0218 31.1761 25.6899 30.6517 26.2144C30.1272 26.7388 29.459 27.096 28.7316 27.2407C28.0042 27.3854 27.2502 27.3111 26.5649 27.0273C25.8797 26.7435 25.294 26.2628 24.882 25.6461C24.4699 25.0294 24.25 24.3044 24.25 23.5627C24.25 22.5682 24.6451 21.6144 25.3483 20.9111C26.0516 20.2078 27.0054 19.8127 28 19.8127ZM28 18.3127C26.9616 18.3127 25.9466 18.6207 25.0833 19.1975C24.2199 19.7744 23.547 20.5943 23.1496 21.5537C22.7523 22.513 22.6483 23.5686 22.8509 24.587C23.0534 25.6054 23.5535 26.5408 24.2877 27.2751C25.0219 28.0093 25.9574 28.5093 26.9758 28.7119C27.9942 28.9144 29.0498 28.8105 30.0091 28.4131C30.9684 28.0158 31.7883 27.3428 32.3652 26.4795C32.9421 25.6161 33.25 24.6011 33.25 23.5627C33.25 22.1704 32.6969 20.835 31.7123 19.8504C30.7277 18.8659 29.3924 18.3127 28 18.3127Z" fill="white"/>
<path d="M35.5 39.3127H34V35.5627C34 35.0703 33.903 34.5827 33.7145 34.1277C33.5261 33.6727 33.2499 33.2593 32.9017 32.9111C32.5534 32.5629 32.14 32.2867 31.6851 32.0982C31.2301 31.9097 30.7425 31.8127 30.25 31.8127H25.75C24.7554 31.8127 23.8016 32.2078 23.0983 32.9111C22.3951 33.6144 22 34.5682 22 35.5627V39.3127H20.5V35.5627C20.5 34.1704 21.0531 32.835 22.0377 31.8504C23.0223 30.8659 24.3576 30.3127 25.75 30.3127H30.25C31.6424 30.3127 32.9777 30.8659 33.9623 31.8504C34.9469 32.835 35.5 34.1704 35.5 35.5627V39.3127Z" fill="white"/>
<path d="M67.5707 22.0385H69.3907V28.0445C69.3907 29.5705 69.9227 30.3405 71.3227 30.3405C72.7227 30.3405 73.2547 29.5705 73.2547 28.0445V22.0385H75.0747V27.8065C75.0747 30.6765 74.0527 31.9785 71.3087 31.9785C68.5647 31.9785 67.5707 30.6765 67.5707 27.8065V22.0385ZM79.7487 31.9785C78.3627 31.9785 77.4527 31.4745 76.7247 30.6345L77.8167 29.5705C78.3487 30.1865 78.9927 30.5645 79.8187 30.5645C80.6727 30.5645 81.0367 30.2425 81.0367 29.7245C81.0367 29.3045 80.7847 29.0385 80.1407 28.9545L79.4127 28.8565C77.8447 28.6605 76.9767 27.9745 76.9767 26.6445C76.9767 25.2305 78.0827 24.3345 79.7487 24.3345C81.1767 24.3345 81.9047 24.7545 82.6047 25.4825L81.5547 26.5325C81.1347 26.0845 80.5187 25.7485 79.8047 25.7485C79.0347 25.7485 78.6987 26.0565 78.6987 26.5045C78.6987 26.9945 78.9647 27.2185 79.6507 27.3305L80.3927 27.4285C81.9887 27.6525 82.7587 28.3665 82.7587 29.5845C82.7587 30.9985 81.5687 31.9785 79.7487 31.9785ZM87.455 31.9785C85.299 31.9785 84.011 30.4805 84.011 28.1425C84.011 25.8325 85.257 24.3345 87.399 24.3345C89.681 24.3345 90.731 26.0145 90.731 28.0165V28.6045H85.873V28.7865C85.873 29.8365 86.475 30.5505 87.651 30.5505C88.533 30.5505 89.065 30.1305 89.513 29.5565L90.479 30.6345C89.877 31.4605 88.813 31.9785 87.455 31.9785ZM87.427 25.6785C86.489 25.6785 85.873 26.3785 85.873 27.3865V27.4985H88.869V27.3725C88.869 26.3645 88.351 25.6785 87.427 25.6785ZM94.2597 31.8105H92.4677V24.5025H94.2597V26.0145H94.3297C94.5117 25.2445 95.0997 24.5025 96.2617 24.5025H96.6537V26.1965H96.0937C94.8897 26.1965 94.2597 26.5325 94.2597 27.3305V31.8105Z" fill="black"/>
<rect width="213.727" height="94.9898" transform="translate(112.988 19.4966)" fill="white" fill-opacity="0.01" style="mix-blend-mode:multiply"/>
<path d="M241 26.8125H241.5V26.3125H241V26.8125ZM241 126.812L243.887 121.812H238.113L241 126.812ZM116 27.3125H241V26.3125H116V27.3125ZM240.5 26.8125V122.312H241.5V26.8125H240.5Z" fill="black"/>
<path d="M123.729 11.3245H121.065V18.8125H120.057V11.3245H117.393V10.4365H123.729V11.3245ZM126.879 18.9565C125.199 18.9565 124.095 17.6845 124.095 15.7165C124.095 13.7485 125.199 12.4765 126.879 12.4765C128.535 12.4765 129.555 13.7485 129.555 15.5005V15.9565H125.103V16.2445C125.103 17.3125 125.787 18.1165 126.939 18.1165C127.719 18.1165 128.319 17.7325 128.643 17.0485L129.327 17.5405C128.931 18.3805 128.043 18.9565 126.879 18.9565ZM126.879 13.2805C125.835 13.2805 125.103 14.0725 125.103 15.1525V15.2365H128.523V15.1045C128.523 14.0125 127.863 13.2805 126.879 13.2805ZM132.417 18.8125H131.457V12.6205H132.417V13.7605H132.477C132.693 13.1725 133.257 12.6205 134.265 12.6205H134.637V13.5805H134.073C133.041 13.5805 132.417 14.0245 132.417 14.6125V18.8125ZM137.143 18.8125H136.183V12.6205H137.143V13.7605H137.203C137.419 13.1725 137.983 12.6205 138.991 12.6205H139.363V13.5805H138.799C137.767 13.5805 137.143 14.0245 137.143 14.6125V18.8125ZM145.903 18.8125H145.363C144.655 18.8125 144.367 18.3805 144.295 17.8045H144.235C143.971 18.5605 143.311 18.9565 142.447 18.9565C141.139 18.9565 140.371 18.2365 140.371 17.0845C140.371 15.9205 141.211 15.2725 143.011 15.2725H144.235V14.6605C144.235 13.7845 143.755 13.3045 142.771 13.3045C142.027 13.3045 141.535 13.6645 141.199 14.2285L140.623 13.6885C140.959 13.0285 141.703 12.4765 142.819 12.4765C144.307 12.4765 145.195 13.2565 145.195 14.5645V17.9725H145.903V18.8125ZM142.603 18.1405C143.551 18.1405 144.235 17.6485 144.235 17.0125V15.9925H142.963C141.871 15.9925 141.379 16.3285 141.379 16.9285V17.1805C141.379 17.7925 141.859 18.1405 142.603 18.1405ZM147.929 18.8125V13.4605H146.921V12.6205H147.929V11.3725C147.929 10.5205 148.373 9.9325 149.285 9.9325H150.221V10.7725H148.889V12.6205H150.221V13.4605H148.889V18.8125H147.929ZM154.096 18.9565C152.44 18.9565 151.3 17.6845 151.3 15.7165C151.3 13.7485 152.44 12.4765 154.096 12.4765C155.752 12.4765 156.892 13.7485 156.892 15.7165C156.892 17.6845 155.752 18.9565 154.096 18.9565ZM154.096 18.1045C155.128 18.1045 155.86 17.4685 155.86 16.1605V15.2725C155.86 13.9645 155.128 13.3285 154.096 13.3285C153.064 13.3285 152.332 13.9645 152.332 15.2725V16.1605C152.332 17.4685 153.064 18.1045 154.096 18.1045ZM159.751 18.8125H158.791V12.6205H159.751V13.7605H159.811C160.027 13.1725 160.591 12.6205 161.599 12.6205H161.971V13.5805H161.407C160.375 13.5805 159.751 14.0245 159.751 14.6125V18.8125ZM164.478 18.8125H163.518V12.6205H164.478V13.6285H164.526C164.802 12.9925 165.234 12.4765 166.194 12.4765C167.01 12.4765 167.754 12.8485 168.09 13.7365H168.114C168.342 13.0645 168.942 12.4765 169.998 12.4765C171.258 12.4765 172.014 13.3405 172.014 14.8405V18.8125H171.054V15.0085C171.054 13.9165 170.634 13.3405 169.698 13.3405C168.942 13.3405 168.246 13.7245 168.246 14.5165V18.8125H167.286V15.0085C167.286 13.9045 166.866 13.3405 165.954 13.3405C165.198 13.3405 164.478 13.7245 164.478 14.5165V18.8125ZM177.47 21.2125V12.6205H178.43V13.6285H178.478C178.802 12.8485 179.438 12.4765 180.29 12.4765C181.838 12.4765 182.81 13.7365 182.81 15.7165C182.81 17.6965 181.838 18.9565 180.29 18.9565C179.438 18.9565 178.85 18.5725 178.478 17.8045H178.43V21.2125H177.47ZM180.026 18.0925C181.106 18.0925 181.778 17.3485 181.778 16.2445V15.1885C181.778 14.0845 181.106 13.3405 180.026 13.3405C179.15 13.3405 178.43 13.8445 178.43 14.5285V16.8325C178.43 17.6365 179.15 18.0925 180.026 18.0925ZM186.623 18.8125H185.771C185.111 18.8125 184.751 18.3925 184.751 17.8165V9.9325H185.711V17.9725H186.623V18.8125ZM193.381 18.8125H192.841C192.133 18.8125 191.845 18.3805 191.773 17.8045H191.713C191.449 18.5605 190.789 18.9565 189.925 18.9565C188.617 18.9565 187.849 18.2365 187.849 17.0845C187.849 15.9205 188.689 15.2725 190.489 15.2725H191.713V14.6605C191.713 13.7845 191.233 13.3045 190.249 13.3045C189.505 13.3045 189.013 13.6645 188.677 14.2285L188.101 13.6885C188.437 13.0285 189.181 12.4765 190.297 12.4765C191.785 12.4765 192.673 13.2565 192.673 14.5645V17.9725H193.381V18.8125ZM190.081 18.1405C191.029 18.1405 191.713 17.6485 191.713 17.0125V15.9925H190.441C189.349 15.9925 188.857 16.3285 188.857 16.9285V17.1805C188.857 17.7925 189.337 18.1405 190.081 18.1405ZM196.031 18.8125H195.071V12.6205H196.031V13.6285H196.079C196.379 12.9325 196.907 12.4765 197.831 12.4765C199.103 12.4765 199.907 13.3405 199.907 14.8405V18.8125H198.947V15.0085C198.947 13.9045 198.467 13.3405 197.543 13.3405C196.775 13.3405 196.031 13.7245 196.031 14.5165V18.8125Z" fill="black"/>
<path d="M124.063 37.3245H121.399V44.8125H120.391V37.3245H117.727V36.4365H124.063V37.3245ZM127.213 44.9565C125.533 44.9565 124.429 43.6845 124.429 41.7165C124.429 39.7485 125.533 38.4765 127.213 38.4765C128.869 38.4765 129.889 39.7485 129.889 41.5005V41.9565H125.437V42.2445C125.437 43.3125 126.121 44.1165 127.273 44.1165C128.053 44.1165 128.653 43.7325 128.977 43.0485L129.661 43.5405C129.265 44.3805 128.377 44.9565 127.213 44.9565ZM127.213 39.2805C126.169 39.2805 125.437 40.0725 125.437 41.1525V41.2365H128.857V41.1045C128.857 40.0125 128.197 39.2805 127.213 39.2805ZM132.751 44.8125H131.791V38.6205H132.751V39.7605H132.811C133.027 39.1725 133.591 38.6205 134.599 38.6205H134.971V39.5805H134.407C133.375 39.5805 132.751 40.0245 132.751 40.6125V44.8125ZM137.477 44.8125H136.517V38.6205H137.477V39.7605H137.537C137.753 39.1725 138.317 38.6205 139.325 38.6205H139.697V39.5805H139.133C138.101 39.5805 137.477 40.0245 137.477 40.6125V44.8125ZM146.237 44.8125H145.697C144.989 44.8125 144.701 44.3805 144.629 43.8045H144.569C144.305 44.5605 143.645 44.9565 142.781 44.9565C141.473 44.9565 140.705 44.2365 140.705 43.0845C140.705 41.9205 141.545 41.2725 143.345 41.2725H144.569V40.6605C144.569 39.7845 144.089 39.3045 143.105 39.3045C142.361 39.3045 141.869 39.6645 141.533 40.2285L140.957 39.6885C141.293 39.0285 142.037 38.4765 143.153 38.4765C144.641 38.4765 145.529 39.2565 145.529 40.5645V43.9725H146.237V44.8125ZM142.937 44.1405C143.885 44.1405 144.569 43.6485 144.569 43.0125V41.9925H143.297C142.205 41.9925 141.713 42.3285 141.713 42.9285V43.1805C141.713 43.7925 142.193 44.1405 142.937 44.1405ZM148.263 44.8125V39.4605H147.255V38.6205H148.263V37.3725C148.263 36.5205 148.707 35.9325 149.619 35.9325H150.555V36.7725H149.223V38.6205H150.555V39.4605H149.223V44.8125H148.263ZM154.431 44.9565C152.775 44.9565 151.635 43.6845 151.635 41.7165C151.635 39.7485 152.775 38.4765 154.431 38.4765C156.087 38.4765 157.227 39.7485 157.227 41.7165C157.227 43.6845 156.087 44.9565 154.431 44.9565ZM154.431 44.1045C155.463 44.1045 156.195 43.4685 156.195 42.1605V41.2725C156.195 39.9645 155.463 39.3285 154.431 39.3285C153.399 39.3285 152.667 39.9645 152.667 41.2725V42.1605C152.667 43.4685 153.399 44.1045 154.431 44.1045ZM160.085 44.8125H159.125V38.6205H160.085V39.7605H160.145C160.361 39.1725 160.925 38.6205 161.933 38.6205H162.305V39.5805H161.741C160.709 39.5805 160.085 40.0245 160.085 40.6125V44.8125ZM164.812 44.8125H163.852V38.6205H164.812V39.6285H164.86C165.136 38.9925 165.568 38.4765 166.528 38.4765C167.344 38.4765 168.088 38.8485 168.424 39.7365H168.448C168.676 39.0645 169.276 38.4765 170.332 38.4765C171.592 38.4765 172.348 39.3405 172.348 40.8405V44.8125H171.388V41.0085C171.388 39.9165 170.968 39.3405 170.032 39.3405C169.276 39.3405 168.58 39.7245 168.58 40.5165V44.8125H167.62V41.0085C167.62 39.9045 167.2 39.3405 166.288 39.3405C165.532 39.3405 164.812 39.7245 164.812 40.5165V44.8125ZM182.844 44.8125H182.304C181.596 44.8125 181.308 44.3805 181.236 43.8045H181.176C180.912 44.5605 180.252 44.9565 179.388 44.9565C178.08 44.9565 177.312 44.2365 177.312 43.0845C177.312 41.9205 178.152 41.2725 179.952 41.2725H181.176V40.6605C181.176 39.7845 180.696 39.3045 179.712 39.3045C178.968 39.3045 178.476 39.6645 178.14 40.2285L177.564 39.6885C177.9 39.0285 178.644 38.4765 179.76 38.4765C181.248 38.4765 182.136 39.2565 182.136 40.5645V43.9725H182.844V44.8125ZM179.544 44.1405C180.492 44.1405 181.176 43.6485 181.176 43.0125V41.9925H179.904C178.812 41.9925 178.32 42.3285 178.32 42.9285V43.1805C178.32 43.7925 178.8 44.1405 179.544 44.1405ZM184.534 47.2125V38.6205H185.494V39.6285H185.542C185.866 38.8485 186.502 38.4765 187.354 38.4765C188.902 38.4765 189.874 39.7365 189.874 41.7165C189.874 43.6965 188.902 44.9565 187.354 44.9565C186.502 44.9565 185.914 44.5725 185.542 43.8045H185.494V47.2125H184.534ZM187.09 44.0925C188.17 44.0925 188.842 43.3485 188.842 42.2445V41.1885C188.842 40.0845 188.17 39.3405 187.09 39.3405C186.214 39.3405 185.494 39.8445 185.494 40.5285V42.8325C185.494 43.6365 186.214 44.0925 187.09 44.0925ZM191.815 47.2125V38.6205H192.775V39.6285H192.823C193.147 38.8485 193.783 38.4765 194.635 38.4765C196.183 38.4765 197.155 39.7365 197.155 41.7165C197.155 43.6965 196.183 44.9565 194.635 44.9565C193.783 44.9565 193.195 44.5725 192.823 43.8045H192.775V47.2125H191.815ZM194.371 44.0925C195.451 44.0925 196.123 43.3485 196.123 42.2445V41.1885C196.123 40.0845 195.451 39.3405 194.371 39.3405C193.495 39.3405 192.775 39.8445 192.775 40.5285V42.8325C192.775 43.6365 193.495 44.0925 194.371 44.0925ZM200.968 44.8125H200.116C199.456 44.8125 199.096 44.3925 199.096 43.8165V35.9325H200.056V43.9725H200.968V44.8125ZM204.885 42.8325L206.385 38.6205H207.333L204.561 46.2525C204.285 46.9965 204.033 47.2125 203.121 47.2125H202.629V46.3725H203.601L204.069 45.0525L201.753 38.6205H202.713L204.201 42.8325L204.489 43.8405H204.549L204.885 42.8325Z" fill="black"/>
<rect x="0.5" y="127.5" width="602" height="472" fill="#F2F4F8" stroke="#D9D9D9"/>
<rect x="31.5591" y="208.29" width="245.974" height="340.963" fill="white" fill-opacity="0.01" style="mix-blend-mode:multiply"/>
<rect x="31.5591" y="208.29" width="245.974" height="340.963" stroke="#A56EFF"/>
<rect x="32.0591" y="208.79" width="245" height="340" fill="white"/>
<g clip-path="url(#clip0_1_15218)">
<path d="M88.2071 236.79V227.018H90.2931L92.7991 231.792H92.8551L95.3331 227.018H97.3351V236.79H95.5851V229.776H95.5291L94.7731 231.33L92.7711 235.026L90.7691 231.33L90.0131 229.776H89.9571V236.79H88.2071ZM102.583 236.958C100.497 236.958 99.1948 235.474 99.1948 233.122C99.1948 230.784 100.497 229.314 102.583 229.314C104.683 229.314 105.985 230.784 105.985 233.122C105.985 235.474 104.683 236.958 102.583 236.958ZM102.583 235.516C103.521 235.516 104.109 234.914 104.109 233.808V232.45C104.109 231.358 103.521 230.756 102.583 230.756C101.659 230.756 101.071 231.358 101.071 232.45V233.808C101.071 234.914 101.659 235.516 102.583 235.516ZM112.269 236.79V235.572H112.199C111.933 236.398 111.149 236.958 110.183 236.958C108.349 236.958 107.327 235.572 107.327 233.122C107.327 230.686 108.349 229.314 110.183 229.314C111.149 229.314 111.947 229.846 112.199 230.686H112.269V226.43H114.061V236.79H112.269ZM110.757 235.474C111.611 235.474 112.269 235.04 112.269 234.284V231.96C112.269 231.246 111.611 230.784 110.757 230.784C109.833 230.784 109.203 231.47 109.203 232.506V233.766C109.203 234.802 109.833 235.474 110.757 235.474ZM120.656 236.79V235.572H120.586C120.334 236.3 119.746 236.958 118.542 236.958C117.044 236.958 116.204 235.922 116.204 234.102V229.482H117.996V233.92C117.996 234.928 118.374 235.474 119.228 235.474C119.942 235.474 120.656 235.096 120.656 234.312V229.482H122.448V236.79H120.656ZM127.436 236.79H126.47C125.252 236.79 124.678 236.146 124.678 235.026V226.43H126.47V235.362H127.436V236.79ZM131.908 236.958C129.752 236.958 128.464 235.46 128.464 233.122C128.464 230.812 129.71 229.314 131.852 229.314C134.134 229.314 135.184 230.994 135.184 232.996V233.584H130.326V233.766C130.326 234.816 130.928 235.53 132.104 235.53C132.986 235.53 133.518 235.11 133.966 234.536L134.932 235.614C134.33 236.44 133.266 236.958 131.908 236.958ZM131.88 230.658C130.942 230.658 130.326 231.358 130.326 232.366V232.478H133.322V232.352C133.322 231.344 132.804 230.658 131.88 230.658ZM139.314 236.958C137.928 236.958 137.018 236.454 136.29 235.614L137.382 234.55C137.914 235.166 138.558 235.544 139.384 235.544C140.238 235.544 140.602 235.222 140.602 234.704C140.602 234.284 140.35 234.018 139.706 233.934L138.978 233.836C137.41 233.64 136.542 232.954 136.542 231.624C136.542 230.21 137.648 229.314 139.314 229.314C140.742 229.314 141.47 229.734 142.17 230.462L141.12 231.512C140.7 231.064 140.084 230.728 139.37 230.728C138.6 230.728 138.264 231.036 138.264 231.484C138.264 231.974 138.53 232.198 139.216 232.31L139.958 232.408C141.554 232.632 142.324 233.346 142.324 234.564C142.324 235.978 141.134 236.958 139.314 236.958Z" fill="black"/>
<rect width="24" height="24" transform="translate(47.0591 219.79)" fill="white" fill-opacity="0.01" style="mix-blend-mode:multiply"/>
<path d="M53.0591 222.79V225.79H50.0591V222.79H53.0591ZM54.5591 221.29H48.5591V227.29H54.5591V221.29ZM60.5591 222.79V225.79H57.5591V222.79H60.5591ZM62.0591 221.29H56.0591V227.29H62.0591V221.29ZM68.0591 222.79V225.79H65.0591V222.79H68.0591ZM69.5591 221.29H63.5591V227.29H69.5591V221.29ZM53.0591 230.29V233.29H50.0591V230.29H53.0591ZM54.5591 228.79H48.5591V234.79H54.5591V228.79ZM60.5591 230.29V233.29H57.5591V230.29H60.5591ZM62.0591 228.79H56.0591V234.79H62.0591V228.79ZM68.0591 230.29V233.29H65.0591V230.29H68.0591ZM69.5591 228.79H63.5591V234.79H69.5591V228.79ZM53.0591 237.79V240.79H50.0591V237.79H53.0591ZM54.5591 236.29H48.5591V242.29H54.5591V236.29ZM60.5591 237.79V240.79H57.5591V237.79H60.5591ZM62.0591 236.29H56.0591V242.29H62.0591V236.29ZM68.0591 237.79V240.79H65.0591V237.79H68.0591ZM69.5591 236.29H63.5591V242.29H69.5591V236.29Z" fill="black"/>
<line x1="33.0591" y1="207.79" x2="33.0591" y2="255.79" stroke="#A56EFF" stroke-width="4"/>
</g>
<rect x="343.838" y="205.915" width="226.976" height="340.963" fill="white" fill-opacity="0.01" style="mix-blend-mode:multiply"/>
<rect x="343.838" y="205.915" width="226.976" height="340.963" stroke="#009D9A"/>
<rect x="344.338" y="206.415" width="226" height="340" fill="white"/>
<g clip-path="url(#clip1_1_15218)">
<path d="M402.334 234.415H400.486V224.643H404.882C406.688 224.643 407.78 225.861 407.78 227.667C407.78 229.487 406.688 230.691 404.882 230.691H402.334V234.415ZM402.334 226.253V229.095H404.714C405.428 229.095 405.862 228.703 405.862 227.989V227.345C405.862 226.631 405.428 226.253 404.714 226.253H402.334ZM411.158 234.415H409.366V227.107H411.158V228.619H411.228C411.41 227.849 411.998 227.107 413.16 227.107H413.552V228.801H412.992C411.788 228.801 411.158 229.137 411.158 229.935V234.415ZM417.852 234.583C415.766 234.583 414.464 233.099 414.464 230.747C414.464 228.409 415.766 226.939 417.852 226.939C419.952 226.939 421.254 228.409 421.254 230.747C421.254 233.099 419.952 234.583 417.852 234.583ZM417.852 233.141C418.79 233.141 419.378 232.539 419.378 231.433V230.075C419.378 228.983 418.79 228.381 417.852 228.381C416.928 228.381 416.34 228.983 416.34 230.075V231.433C416.34 232.539 416.928 233.141 417.852 233.141ZM426.589 234.415H424.461L422.025 227.107H423.789L424.811 230.257L425.525 232.861H425.623L426.337 230.257L427.331 227.107H429.039L426.589 234.415ZM431.291 226.043C430.549 226.043 430.241 225.665 430.241 225.147V224.867C430.241 224.349 430.549 223.971 431.291 223.971C432.019 223.971 432.341 224.349 432.341 224.867V225.147C432.341 225.665 432.019 226.043 431.291 226.043ZM430.395 234.415V227.107H432.187V234.415H430.395ZM438.96 234.415V233.197H438.89C438.624 234.023 437.84 234.583 436.874 234.583C435.04 234.583 434.018 233.197 434.018 230.747C434.018 228.311 435.04 226.939 436.874 226.939C437.84 226.939 438.638 227.471 438.89 228.311H438.96V224.055H440.752V234.415H438.96ZM437.448 233.099C438.302 233.099 438.96 232.665 438.96 231.909V229.585C438.96 228.871 438.302 228.409 437.448 228.409C436.524 228.409 435.894 229.095 435.894 230.131V231.391C435.894 232.427 436.524 233.099 437.448 233.099ZM445.932 234.583C443.776 234.583 442.488 233.085 442.488 230.747C442.488 228.437 443.734 226.939 445.876 226.939C448.158 226.939 449.208 228.619 449.208 230.621V231.209H444.35V231.391C444.35 232.441 444.952 233.155 446.128 233.155C447.01 233.155 447.542 232.735 447.99 232.161L448.956 233.239C448.354 234.065 447.29 234.583 445.932 234.583ZM445.904 228.283C444.966 228.283 444.35 228.983 444.35 229.991V230.103H447.346V229.977C447.346 228.969 446.828 228.283 445.904 228.283ZM452.737 234.415H450.945V227.107H452.737V228.619H452.807C452.989 227.849 453.577 227.107 454.739 227.107H455.131V228.801H454.571C453.367 228.801 452.737 229.137 452.737 229.935V234.415ZM458.995 234.583C457.609 234.583 456.699 234.079 455.971 233.239L457.063 232.175C457.595 232.791 458.239 233.169 459.065 233.169C459.919 233.169 460.283 232.847 460.283 232.329C460.283 231.909 460.031 231.643 459.387 231.559L458.659 231.461C457.091 231.265 456.223 230.579 456.223 229.249C456.223 227.835 457.329 226.939 458.995 226.939C460.423 226.939 461.151 227.359 461.851 228.087L460.801 229.137C460.381 228.689 459.765 228.353 459.051 228.353C458.281 228.353 457.945 228.661 457.945 229.109C457.945 229.599 458.211 229.823 458.897 229.935L459.639 230.033C461.235 230.257 462.005 230.971 462.005 232.189C462.005 233.603 460.815 234.583 458.995 234.583Z" fill="black"/>
<rect width="24" height="24" transform="translate(359.338 217.415)" fill="white" fill-opacity="0.01" style="mix-blend-mode:multiply"/>
<path d="M381.838 229.415L375.838 235.415L374.788 234.365L379.738 229.415L374.788 224.465L375.838 223.415L381.838 229.415Z" fill="black"/>
<path d="M374.338 228.665H368.338V230.165H374.338V228.665Z" fill="black"/>
<path d="M360.838 229.415L366.838 223.415L367.888 224.465L362.938 229.415L367.888 234.365L366.838 235.415L360.838 229.415Z" fill="black"/>
<line x1="345.338" y1="205.415" x2="345.338" y2="253.415" stroke="#009D9A" stroke-width="4"/>
</g>
<g clip-path="url(#clip2_1_15218)">
<path d="M23.7755 156.049H17.3355V146.277H23.7755V147.915H19.1835V150.281H23.2435V151.919H19.1835V154.411H23.7755V156.049ZM25.008 156.049L27.5 152.339L25.064 148.741H27.108L28.62 151.163H28.676L30.174 148.741H32.078L29.6 152.367L32.092 156.049H30.048L28.508 153.529H28.452L26.912 156.049H25.008ZM35.3593 156.217C33.8753 156.217 33.0353 155.363 33.0353 154.061C33.0353 152.563 34.1693 151.821 36.1573 151.821H37.4033V151.289C37.4033 150.477 36.9973 150.001 36.0453 150.001C35.2053 150.001 34.7293 150.421 34.3793 150.925L33.3153 149.973C33.8473 149.133 34.7013 148.573 36.1713 148.573C38.1453 148.573 39.1953 149.511 39.1953 151.177V154.621H39.9233V156.049H38.9293C38.1593 156.049 37.6833 155.545 37.5713 154.789H37.4873C37.2493 155.727 36.4513 156.217 35.3593 156.217ZM35.9613 154.915C36.7593 154.915 37.4033 154.551 37.4033 153.865V152.899H36.2553C35.3173 152.899 34.8553 153.221 34.8553 153.795V154.033C34.8553 154.621 35.2613 154.915 35.9613 154.915ZM43.3256 156.049H41.5336V148.741H43.3256V149.959H43.3956C43.6756 149.189 44.2636 148.573 45.3556 148.573C46.3496 148.573 47.1196 149.063 47.4696 150.043H47.4976C47.7636 149.231 48.5756 148.573 49.7376 148.573C51.1656 148.573 51.9776 149.609 51.9776 151.429V156.049H50.1856V151.611C50.1856 150.561 49.8076 150.043 49.0096 150.043C48.3096 150.043 47.6516 150.435 47.6516 151.219V156.049H45.8596V151.611C45.8596 150.561 45.4816 150.043 44.6836 150.043C43.9976 150.043 43.3256 150.435 43.3256 151.219V156.049ZM54.1213 158.849V148.741H55.9133V149.945H55.9693C56.2353 149.105 57.0193 148.573 57.9853 148.573C59.8333 148.573 60.8553 149.945 60.8553 152.381C60.8553 154.831 59.8333 156.217 57.9853 156.217C57.0193 156.217 56.2493 155.657 55.9693 154.831H55.9133V158.849H54.1213ZM57.4113 154.733C58.3353 154.733 58.9793 154.061 58.9793 153.025V151.765C58.9793 150.729 58.3353 150.043 57.4113 150.043C56.5573 150.043 55.9133 150.505 55.9133 151.219V153.543C55.9133 154.299 56.5573 154.733 57.4113 154.733ZM65.4338 156.049H64.4678C63.2498 156.049 62.6758 155.405 62.6758 154.285V145.689H64.4678V154.621H65.4338V156.049ZM69.9051 156.217C67.7491 156.217 66.4611 154.719 66.4611 152.381C66.4611 150.071 67.7071 148.573 69.8491 148.573C72.1311 148.573 73.1811 150.253 73.1811 152.255V152.843H68.3231V153.025C68.3231 154.075 68.9251 154.789 70.1011 154.789C70.9831 154.789 71.5151 154.369 71.9631 153.795L72.9291 154.873C72.3271 155.699 71.2631 156.217 69.9051 156.217ZM69.8771 149.917C68.9391 149.917 68.3231 150.617 68.3231 151.625V151.737H71.3191V151.611C71.3191 150.603 70.8011 149.917 69.8771 149.917Z" fill="black"/>
<line x1="2.1875" y1="127.049" x2="2.1875" y2="192.354" stroke="#4D5358" stroke-width="4"/>
</g>
<rect x="646.5" y="127.5" width="606" height="472" fill="white" fill-opacity="0.01" style="mix-blend-mode:multiply"/>
<rect x="646.5" y="127.5" width="606" height="472" stroke="#0F62FE"/>
<rect x="647" y="128" width="605" height="471" fill="white"/>
<rect x="647" y="128" width="605" height="471" fill="#EDF5FF"/>
<g clip-path="url(#clip3_1_15218)">
<path d="M707.18 156H702.742V154.516H704.03V147.712H702.742V146.228H707.18V147.712H705.878V154.516H707.18V156ZM709.228 156V146.228H713.75C715.36 146.228 716.34 147.222 716.34 148.734C716.34 150.218 715.486 150.778 714.59 150.834V150.918C715.444 150.932 716.704 151.534 716.704 153.2C716.704 154.768 715.626 156 714.184 156H709.228ZM711.076 151.814V154.432H713.652C714.352 154.432 714.772 154.054 714.772 153.368V152.892C714.772 152.206 714.352 151.814 713.652 151.814H711.076ZM711.076 147.796V150.302H713.358C714.03 150.302 714.422 149.91 714.422 149.266V148.832C714.422 148.174 714.03 147.796 713.358 147.796H711.076ZM718.671 156V146.228H720.757L723.263 151.002H723.319L725.797 146.228H727.799V156H726.049V148.986H725.993L725.237 150.54L723.235 154.236L721.233 150.54L720.477 148.986H720.421V156H718.671ZM737.523 156.168C734.947 156.168 733.309 154.474 733.309 151.184C733.309 147.894 734.947 146.06 737.523 146.06C739.273 146.06 740.407 146.802 741.093 148.314L739.511 149.154C739.231 148.286 738.615 147.698 737.523 147.698C736.151 147.698 735.269 148.692 735.269 150.358V151.898C735.269 153.578 736.151 154.53 737.523 154.53C738.629 154.53 739.315 153.858 739.637 152.976L741.135 153.858C740.435 155.314 739.273 156.168 737.523 156.168ZM745.518 156H744.552C743.334 156 742.76 155.356 742.76 154.236V145.64H744.552V154.572H745.518V156ZM749.933 156.168C747.847 156.168 746.545 154.684 746.545 152.332C746.545 149.994 747.847 148.524 749.933 148.524C752.033 148.524 753.335 149.994 753.335 152.332C753.335 154.684 752.033 156.168 749.933 156.168ZM749.933 154.726C750.871 154.726 751.459 154.124 751.459 153.018V151.66C751.459 150.568 750.871 149.966 749.933 149.966C749.009 149.966 748.421 150.568 748.421 151.66V153.018C748.421 154.124 749.009 154.726 749.933 154.726ZM759.452 156V154.782H759.382C759.13 155.51 758.542 156.168 757.338 156.168C755.84 156.168 755 155.132 755 153.312V148.692H756.792V153.13C756.792 154.138 757.17 154.684 758.024 154.684C758.738 154.684 759.452 154.306 759.452 153.522V148.692H761.244V156H759.452ZM768.01 156V154.782H767.94C767.674 155.608 766.89 156.168 765.924 156.168C764.09 156.168 763.068 154.782 763.068 152.332C763.068 149.896 764.09 148.524 765.924 148.524C766.89 148.524 767.688 149.056 767.94 149.896H768.01V145.64H769.802V156H768.01ZM766.498 154.684C767.352 154.684 768.01 154.25 768.01 153.494V151.17C768.01 150.456 767.352 149.994 766.498 149.994C765.574 149.994 764.944 150.68 764.944 151.716V152.976C764.944 154.012 765.574 154.684 766.498 154.684Z" fill="black"/>
<g clip-path="url(#clip4_1_15218)">
<rect width="24" height="24" transform="translate(662 139)" fill="white" fill-opacity="0.01" style="mix-blend-mode:multiply"/>
<path d="M680.435 149.238C679.69 147.841 678.511 146.724 677.075 146.056C675.64 145.388 674.026 145.205 672.478 145.534C670.929 145.863 669.53 146.687 668.49 147.881C667.45 149.075 666.827 150.575 666.714 152.154C665.427 152.293 664.241 152.919 663.401 153.906C662.562 154.892 662.132 156.162 662.2 157.456C662.269 158.749 662.831 159.967 663.77 160.859C664.709 161.751 665.955 162.249 667.25 162.25H679.25C680.887 162.251 682.466 161.64 683.676 160.536C684.885 159.432 685.638 157.916 685.787 156.285C685.935 154.655 685.469 153.027 684.478 151.723C683.488 150.419 682.046 149.533 680.435 149.238ZM679.25 161.125H667.25C666.252 161.127 665.291 160.75 664.561 160.069C663.832 159.388 663.389 158.456 663.322 157.46C663.255 156.464 663.57 155.481 664.202 154.709C664.834 153.937 665.736 153.434 666.725 153.303C666.805 154.296 667.087 155.261 667.553 156.141C667.587 156.208 667.634 156.268 667.691 156.316C667.748 156.365 667.815 156.402 667.886 156.424C667.958 156.447 668.033 156.455 668.108 156.448C668.183 156.441 668.255 156.419 668.321 156.384C668.388 156.348 668.446 156.3 668.493 156.241C668.54 156.183 668.575 156.116 668.596 156.043C668.617 155.971 668.623 155.896 668.614 155.821C668.605 155.747 668.581 155.674 668.544 155.609C667.801 154.219 667.616 152.598 668.027 151.076C668.438 149.555 669.415 148.247 670.757 147.421C672.1 146.595 673.707 146.312 675.25 146.631C676.794 146.949 678.158 147.845 679.064 149.135C678.165 149.16 677.281 149.369 676.466 149.75C675.651 150.13 674.924 150.674 674.328 151.348C674.277 151.403 674.238 151.467 674.212 151.538C674.187 151.608 674.176 151.683 674.18 151.758C674.184 151.833 674.202 151.906 674.235 151.973C674.267 152.041 674.313 152.101 674.369 152.151C674.425 152.2 674.491 152.238 674.562 152.262C674.633 152.286 674.708 152.295 674.783 152.29C674.857 152.284 674.93 152.264 674.997 152.23C675.064 152.196 675.123 152.149 675.171 152.092C675.772 151.41 676.534 150.89 677.388 150.579C678.242 150.268 679.16 150.175 680.058 150.311C680.957 150.446 681.807 150.804 682.532 151.352C683.256 151.901 683.832 152.622 684.206 153.45C684.579 154.278 684.74 155.187 684.672 156.093C684.604 156.999 684.311 157.874 683.818 158.637C683.325 159.4 682.649 160.028 681.851 160.463C681.053 160.897 680.159 161.125 679.25 161.125Z" fill="black"/>
<path d="M685.924 146.691C685.886 146.627 685.837 146.57 685.777 146.524C685.718 146.479 685.65 146.445 685.578 146.426C685.506 146.407 685.431 146.402 685.357 146.412C685.283 146.421 685.211 146.446 685.146 146.483L682.881 147.791C682.815 147.827 682.756 147.877 682.709 147.936C682.662 147.995 682.627 148.063 682.607 148.136C682.586 148.209 682.58 148.286 682.59 148.361C682.599 148.436 682.624 148.509 682.662 148.574C682.699 148.64 682.75 148.698 682.811 148.743C682.871 148.789 682.94 148.823 683.013 148.841C683.087 148.86 683.163 148.864 683.238 148.853C683.313 148.842 683.385 148.816 683.45 148.776L685.715 147.469C685.846 147.393 685.941 147.269 685.98 147.123C686.019 146.977 685.999 146.822 685.924 146.691Z" fill="black"/>
<path d="M679.007 144.903C679.072 144.94 679.143 144.964 679.218 144.974C679.292 144.984 679.367 144.979 679.439 144.96C679.511 144.94 679.579 144.907 679.638 144.861C679.698 144.816 679.747 144.759 679.785 144.694L681.092 142.429C681.167 142.299 681.186 142.144 681.147 141.999C681.107 141.854 681.012 141.731 680.882 141.656C680.752 141.581 680.598 141.56 680.452 141.598C680.307 141.637 680.183 141.731 680.107 141.86L678.799 144.125C678.724 144.256 678.703 144.411 678.742 144.557C678.781 144.703 678.877 144.827 679.007 144.903Z" fill="black"/>
<path d="M674 143.561C674.151 143.561 674.296 143.501 674.402 143.394C674.509 143.288 674.569 143.143 674.569 142.992V140.376C674.57 140.301 674.556 140.226 674.528 140.156C674.499 140.087 674.458 140.023 674.405 139.97C674.352 139.916 674.289 139.873 674.219 139.844C674.15 139.815 674.075 139.801 674 139.801C673.925 139.801 673.85 139.815 673.781 139.844C673.711 139.873 673.648 139.916 673.595 139.97C673.542 140.023 673.501 140.087 673.472 140.156C673.444 140.226 673.43 140.301 673.431 140.376V142.992C673.431 143.143 673.491 143.288 673.598 143.394C673.704 143.501 673.849 143.561 674 143.561Z" fill="black"/>
<path d="M668.215 144.694C668.292 144.824 668.416 144.918 668.561 144.956C668.706 144.995 668.861 144.974 668.991 144.899C669.121 144.824 669.216 144.7 669.255 144.555C669.295 144.41 669.275 144.256 669.201 144.125L667.893 141.86C667.856 141.795 667.806 141.738 667.747 141.692C667.688 141.645 667.62 141.612 667.548 141.592C667.475 141.572 667.399 141.567 667.325 141.577C667.25 141.586 667.179 141.611 667.114 141.648C667.049 141.686 666.992 141.736 666.946 141.796C666.901 141.855 666.867 141.923 666.848 141.996C666.829 142.068 666.824 142.144 666.834 142.219C666.845 142.293 666.87 142.365 666.908 142.429L668.215 144.694Z" fill="black"/>
<path d="M665.119 147.791L662.854 146.483C662.789 146.445 662.717 146.42 662.643 146.41C662.569 146.4 662.493 146.404 662.42 146.423C662.348 146.443 662.28 146.476 662.22 146.522C662.16 146.567 662.11 146.624 662.073 146.689C662.035 146.754 662.011 146.826 662.001 146.9C661.992 146.975 661.997 147.05 662.017 147.123C662.036 147.195 662.07 147.263 662.116 147.323C662.162 147.382 662.219 147.431 662.285 147.469L664.55 148.776C664.615 148.814 664.686 148.839 664.761 148.85C664.835 148.86 664.911 148.855 664.983 148.836C665.056 148.817 665.124 148.783 665.184 148.738C665.243 148.692 665.293 148.635 665.331 148.57C665.369 148.505 665.393 148.434 665.403 148.359C665.412 148.285 665.407 148.209 665.387 148.136C665.368 148.064 665.334 147.996 665.288 147.937C665.242 147.878 665.184 147.828 665.119 147.791Z" fill="black"/>
</g>
<line x1="648" y1="127" x2="648" y2="175" stroke="#0F62FE" stroke-width="4"/>
</g>
<rect x="681.052" y="209.478" width="226.976" height="340.963" fill="white" fill-opacity="0.01" style="mix-blend-mode:multiply"/>
<rect x="681.052" y="209.478" width="226.976" height="340.963" stroke="#0F62FE"/>
<rect x="681.552" y="209.978" width="226" height="340" fill="white"/>
<g clip-path="url(#clip5_1_15218)">
<path d="M741.494 238.146C738.918 238.146 737.28 236.452 737.28 233.162C737.28 229.872 738.918 228.038 741.494 228.038C743.244 228.038 744.378 228.78 745.064 230.292L743.482 231.132C743.202 230.264 742.586 229.676 741.494 229.676C740.122 229.676 739.24 230.67 739.24 232.336V233.876C739.24 235.556 740.122 236.508 741.494 236.508C742.6 236.508 743.286 235.836 743.608 234.954L745.106 235.836C744.406 237.292 743.244 238.146 741.494 238.146ZM749.488 237.978H748.522C747.304 237.978 746.73 237.334 746.73 236.214V227.618H748.522V236.55H749.488V237.978ZM753.903 238.146C751.817 238.146 750.515 236.662 750.515 234.31C750.515 231.972 751.817 230.502 753.903 230.502C756.003 230.502 757.305 231.972 757.305 234.31C757.305 236.662 756.003 238.146 753.903 238.146ZM753.903 236.704C754.841 236.704 755.429 236.102 755.429 234.996V233.638C755.429 232.546 754.841 231.944 753.903 231.944C752.979 231.944 752.391 232.546 752.391 233.638V234.996C752.391 236.102 752.979 236.704 753.903 236.704ZM763.422 237.978V236.76H763.352C763.1 237.488 762.512 238.146 761.308 238.146C759.81 238.146 758.97 237.11 758.97 235.29V230.67H760.762V235.108C760.762 236.116 761.14 236.662 761.994 236.662C762.708 236.662 763.422 236.284 763.422 235.5V230.67H765.214V237.978H763.422ZM771.981 237.978V236.76H771.911C771.645 237.586 770.861 238.146 769.895 238.146C768.061 238.146 767.039 236.76 767.039 234.31C767.039 231.874 768.061 230.502 769.895 230.502C770.861 230.502 771.659 231.034 771.911 231.874H771.981V227.618H773.773V237.978H771.981ZM770.469 236.662C771.323 236.662 771.981 236.228 771.981 235.472V233.148C771.981 232.434 771.323 231.972 770.469 231.972C769.545 231.972 768.915 232.658 768.915 233.694V234.954C768.915 235.99 769.545 236.662 770.469 236.662ZM787.546 237.978H785.628L784.844 235.486H781.372L780.602 237.978H778.726L782.002 228.206H784.298L787.546 237.978ZM784.396 233.904L783.136 229.886H783.066L781.82 233.904H784.396ZM790.994 237.978H789.146V228.206H793.542C795.348 228.206 796.44 229.424 796.44 231.23C796.44 233.05 795.348 234.254 793.542 234.254H790.994V237.978ZM790.994 229.816V232.658H793.374C794.088 232.658 794.522 232.266 794.522 231.552V230.908C794.522 230.194 794.088 229.816 793.374 229.816H790.994ZM802.307 237.978H797.869V236.494H799.157V229.69H797.869V228.206H802.307V229.69H801.005V236.494H802.307V237.978ZM806.582 238.146C805.196 238.146 804.286 237.642 803.558 236.802L804.65 235.738C805.182 236.354 805.826 236.732 806.652 236.732C807.506 236.732 807.87 236.41 807.87 235.892C807.87 235.472 807.618 235.206 806.974 235.122L806.246 235.024C804.678 234.828 803.81 234.142 803.81 232.812C803.81 231.398 804.916 230.502 806.582 230.502C808.01 230.502 808.738 230.922 809.438 231.65L808.388 232.7C807.968 232.252 807.352 231.916 806.638 231.916C805.868 231.916 805.532 232.224 805.532 232.672C805.532 233.162 805.798 233.386 806.484 233.498L807.226 233.596C808.822 233.82 809.592 234.534 809.592 235.752C809.592 237.166 808.402 238.146 806.582 238.146Z" fill="black"/>
<rect width="24" height="24" transform="translate(696.552 220.978)" fill="white" fill-opacity="0.01" style="mix-blend-mode:multiply"/>
<path d="M704.802 241.978H698.052V243.478H704.802V241.978Z" fill="black"/>
<path d="M719.052 241.978H712.302V243.478H719.052V241.978Z" fill="black"/>
<path d="M709.302 240.603V234.352L711.241 236.288L712.302 235.228L708.552 231.478L704.802 235.228L705.862 236.289L707.802 234.352V240.603L705.862 238.666L704.802 239.728L708.552 243.478L712.302 239.728L711.241 238.667L709.302 240.603Z" fill="black"/>
<path d="M713.802 232.978H712.302V231.478H713.802C714.398 231.478 714.971 231.241 715.393 230.819C715.815 230.397 716.052 229.824 716.052 229.228C716.052 228.631 715.815 228.059 715.393 227.637C714.971 227.215 714.398 226.978 713.802 226.978C713.731 226.988 713.686 226.994 713.64 226.997L713.038 227.04L712.868 226.46C712.611 225.584 712.095 224.807 711.386 224.232C710.677 223.657 709.811 223.311 708.901 223.241C707.991 223.17 707.081 223.378 706.293 223.838C705.504 224.297 704.874 224.985 704.486 225.811L704.273 226.261L703.642 226.226C702.945 226.231 702.279 226.512 701.79 227.008C701.301 227.504 701.029 228.173 701.034 228.87C701.038 229.566 701.319 230.232 701.815 230.721C702.311 231.21 702.98 231.482 703.677 231.478H704.802V232.978H703.677C702.61 232.978 701.585 232.566 700.816 231.827C700.047 231.088 699.594 230.08 699.553 229.014C699.511 227.948 699.884 226.908 700.592 226.111C701.301 225.314 702.291 224.823 703.354 224.74C703.914 223.763 704.738 222.964 705.731 222.433C706.725 221.903 707.848 221.663 708.971 221.742C710.094 221.82 711.173 222.213 712.083 222.876C712.993 223.539 713.698 224.446 714.117 225.491C715.081 225.572 715.976 226.022 716.616 226.748C717.256 227.474 717.591 228.419 717.55 229.385C717.509 230.352 717.097 231.265 716.398 231.935C715.7 232.604 714.769 232.978 713.802 232.978Z" fill="black"/>
<line x1="682.552" y1="208.978" x2="682.552" y2="256.978" stroke="#0F62FE" stroke-width="4"/>
</g>
<rect x="974.333" y="208.29" width="245.974" height="340.963" fill="white" fill-opacity="0.01" style="mix-blend-mode:multiply"/>
<rect x="974.333" y="208.29" width="245.974" height="340.963" stroke="#0F62FE"/>
<rect x="974.833" y="208.79" width="245" height="340" fill="white"/>
<g clip-path="url(#clip6_1_15218)">
<path d="M1032.83 233.024V236.79H1030.98V227.018H1035.39C1037.17 227.018 1038.28 228.194 1038.28 230.042C1038.28 231.386 1037.66 232.408 1036.46 232.814L1038.46 236.79H1036.4L1034.58 233.024H1032.83ZM1032.83 231.47H1035.21C1035.92 231.47 1036.36 231.078 1036.36 230.364V229.72C1036.36 229.006 1035.92 228.628 1035.21 228.628H1032.83V231.47ZM1043.07 236.958C1040.92 236.958 1039.63 235.46 1039.63 233.122C1039.63 230.812 1040.88 229.314 1043.02 229.314C1045.3 229.314 1046.35 230.994 1046.35 232.996V233.584H1041.49V233.766C1041.49 234.816 1042.09 235.53 1043.27 235.53C1044.15 235.53 1044.68 235.11 1045.13 234.536L1046.1 235.614C1045.5 236.44 1044.43 236.958 1043.07 236.958ZM1043.05 230.658C1042.11 230.658 1041.49 231.358 1041.49 232.366V232.478H1044.49V232.352C1044.49 231.344 1043.97 230.658 1043.05 230.658ZM1050.48 236.958C1049.1 236.958 1048.19 236.454 1047.46 235.614L1048.55 234.55C1049.08 235.166 1049.73 235.544 1050.55 235.544C1051.41 235.544 1051.77 235.222 1051.77 234.704C1051.77 234.284 1051.52 234.018 1050.87 233.934L1050.15 233.836C1048.58 233.64 1047.71 232.954 1047.71 231.624C1047.71 230.21 1048.82 229.314 1050.48 229.314C1051.91 229.314 1052.64 229.734 1053.34 230.462L1052.29 231.512C1051.87 231.064 1051.25 230.728 1050.54 230.728C1049.77 230.728 1049.43 231.036 1049.43 231.484C1049.43 231.974 1049.7 232.198 1050.38 232.31L1051.13 232.408C1052.72 232.632 1053.49 233.346 1053.49 234.564C1053.49 235.978 1052.3 236.958 1050.48 236.958ZM1058.13 236.958C1056.05 236.958 1054.74 235.474 1054.74 233.122C1054.74 230.784 1056.05 229.314 1058.13 229.314C1060.23 229.314 1061.53 230.784 1061.53 233.122C1061.53 235.474 1060.23 236.958 1058.13 236.958ZM1058.13 235.516C1059.07 235.516 1059.66 234.914 1059.66 233.808V232.45C1059.66 231.358 1059.07 230.756 1058.13 230.756C1057.21 230.756 1056.62 231.358 1056.62 232.45V233.808C1056.62 234.914 1057.21 235.516 1058.13 235.516ZM1067.65 236.79V235.572H1067.58C1067.33 236.3 1066.74 236.958 1065.54 236.958C1064.04 236.958 1063.2 235.922 1063.2 234.102V229.482H1064.99V233.92C1064.99 234.928 1065.37 235.474 1066.22 235.474C1066.94 235.474 1067.65 235.096 1067.65 234.312V229.482H1069.44V236.79H1067.65ZM1073.46 236.79H1071.67V229.482H1073.46V230.994H1073.53C1073.72 230.224 1074.3 229.482 1075.47 229.482H1075.86V231.176H1075.3C1074.09 231.176 1073.46 231.512 1073.46 232.31V236.79ZM1080.14 236.958C1077.99 236.958 1076.77 235.474 1076.77 233.122C1076.77 230.784 1077.99 229.314 1080.14 229.314C1081.61 229.314 1082.58 230.014 1083.01 231.162L1081.54 231.82C1081.38 231.204 1080.91 230.756 1080.14 230.756C1079.15 230.756 1078.65 231.456 1078.65 232.478V233.808C1078.65 234.83 1079.15 235.516 1080.14 235.516C1081 235.516 1081.42 235.026 1081.68 234.368L1083.06 235.026C1082.58 236.314 1081.56 236.958 1080.14 236.958ZM1087.48 236.958C1085.33 236.958 1084.04 235.46 1084.04 233.122C1084.04 230.812 1085.29 229.314 1087.43 229.314C1089.71 229.314 1090.76 230.994 1090.76 232.996V233.584H1085.9V233.766C1085.9 234.816 1086.5 235.53 1087.68 235.53C1088.56 235.53 1089.09 235.11 1089.54 234.536L1090.51 235.614C1089.91 236.44 1088.84 236.958 1087.48 236.958ZM1087.46 230.658C1086.52 230.658 1085.9 231.358 1085.9 232.366V232.478H1088.9V232.352C1088.9 231.344 1088.38 230.658 1087.46 230.658ZM1094.89 236.958C1093.5 236.958 1092.59 236.454 1091.87 235.614L1092.96 234.55C1093.49 235.166 1094.13 235.544 1094.96 235.544C1095.81 235.544 1096.18 235.222 1096.18 234.704C1096.18 234.284 1095.93 234.018 1095.28 233.934L1094.55 233.836C1092.99 233.64 1092.12 232.954 1092.12 231.624C1092.12 230.21 1093.22 229.314 1094.89 229.314C1096.32 229.314 1097.05 229.734 1097.75 230.462L1096.7 231.512C1096.28 231.064 1095.66 230.728 1094.95 230.728C1094.18 230.728 1093.84 231.036 1093.84 231.484C1093.84 231.974 1094.11 232.198 1094.79 232.31L1095.53 232.408C1097.13 232.632 1097.9 233.346 1097.9 234.564C1097.9 235.978 1096.71 236.958 1094.89 236.958Z" fill="black"/>
<rect width="24" height="24" transform="translate(989.833 219.79)" fill="white" fill-opacity="0.01" style="mix-blend-mode:multiply"/>
<path d="M1007.83 235.54C1007.46 235.54 1007.08 235.39 1006.78 235.09L1004.53 232.84C1004.23 232.54 1004.08 232.165 1004.08 231.79C1004.08 231.415 1004.23 231.04 1004.53 230.74L1006.78 228.49C1007.08 228.19 1007.46 228.04 1007.83 228.04C1008.21 228.04 1008.58 228.19 1008.88 228.49L1011.13 230.74C1011.43 231.04 1011.58 231.415 1011.58 231.79C1011.58 232.165 1011.43 232.54 1011.13 232.84L1008.88 235.09C1008.58 235.39 1008.21 235.54 1007.83 235.54ZM1007.83 229.54L1005.58 231.79L1007.83 234.04L1010.08 231.79L1007.83 229.54Z" fill="black"/>
<path d="M1001.83 229.54C1001.46 229.54 1001.08 229.39 1000.78 229.09L998.533 226.84C998.233 226.54 998.083 226.165 998.083 225.79C998.083 225.415 998.233 225.04 998.533 224.74L1000.78 222.49C1001.08 222.19 1001.46 222.04 1001.83 222.04C1002.21 222.04 1002.58 222.19 1002.88 222.49L1005.13 224.74C1005.43 225.04 1005.58 225.415 1005.58 225.79C1005.58 226.165 1005.43 226.54 1005.13 226.84L1002.88 229.09C1002.58 229.39 1002.21 229.54 1001.83 229.54ZM1001.83 223.54L999.583 225.79L1001.83 228.04L1004.08 225.79L1001.83 223.54Z" fill="black"/>
<path d="M1001.83 241.54C1001.46 241.54 1001.08 241.39 1000.78 241.09L998.533 238.84C998.233 238.54 998.083 238.165 998.083 237.79C998.083 237.415 998.233 237.04 998.533 236.74L1000.78 234.49C1001.08 234.19 1001.46 234.04 1001.83 234.04C1002.21 234.04 1002.58 234.19 1002.88 234.49L1005.13 236.74C1005.43 237.04 1005.58 237.415 1005.58 237.79C1005.58 238.165 1005.43 238.54 1005.13 238.84L1002.88 241.09C1002.58 241.39 1002.21 241.54 1001.83 241.54ZM1001.83 235.54L999.583 237.79L1001.83 240.04L1004.08 237.79L1001.83 235.54Z" fill="black"/>
<path d="M995.833 235.54C995.458 235.54 995.083 235.39 994.783 235.09L992.533 232.84C992.233 232.54 992.083 232.165 992.083 231.79C992.083 231.415 992.233 231.04 992.533 230.74L994.783 228.49C995.083 228.19 995.458 228.04 995.833 228.04C996.208 228.04 996.583 228.19 996.883 228.49L999.133 230.74C999.433 231.04 999.583 231.415 999.583 231.79C999.583 232.165 999.433 232.54 999.133 232.84L996.883 235.09C996.583 235.39 996.208 235.54 995.833 235.54ZM995.833 229.54L993.583 231.79L995.833 234.04L998.083 231.79L995.833 229.54Z" fill="black"/>
<line x1="975.833" y1="207.79" x2="975.833" y2="255.79" stroke="#0F62FE" stroke-width="4"/>
</g>
<rect width="130.611" height="124.674" transform="translate(31.0591 303.967)" fill="white" fill-opacity="0.01" style="mix-blend-mode:multiply"/>
<rect width="48" height="48" transform="translate(72.3647 303.967)" fill="#8A3FFC"/>
<rect width="130.611" height="125.862" transform="translate(31.0591 414.393)" fill="white" fill-opacity="0.01" style="mix-blend-mode:multiply"/>
<rect width="48" height="48" transform="translate(72.3647 414.393)" fill="#8A3FFC"/>
<rect width="130.611" height="124.674" transform="translate(140.297 303.967)" fill="white" fill-opacity="0.01" style="mix-blend-mode:multiply"/>
<rect width="48" height="48" transform="translate(181.603 303.967)" fill="#8A3FFC"/>
<rect width="65.3055" height="65.3055" transform="translate(418.143 303.967)" fill="#009D9A"/>
<rect width="65.3055" height="65.3055" transform="translate(418.143 414.393)" fill="#009D9A"/>
<rect width="130.611" height="125.862" transform="translate(140.297 414.393)" fill="white" fill-opacity="0.01" style="mix-blend-mode:multiply"/>
<rect width="48" height="48" transform="translate(181.603 414.393)" fill="#8A3FFC"/>
<path d="M172.71 329.256C172.905 329.06 172.905 328.744 172.71 328.549L169.528 325.367C169.333 325.171 169.016 325.171 168.821 325.367C168.625 325.562 168.625 325.878 168.821 326.074L171.649 328.902L168.821 331.731C168.625 331.926 168.625 332.242 168.821 332.438C169.016 332.633 169.333 332.633 169.528 332.438L172.71 329.256ZM124.861 329.402L172.356 329.402L172.356 328.402L124.861 328.402L124.861 329.402Z" fill="#878D96"/>
<path d="M145.557 351.123L146.057 351.123L146.057 350.623L145.557 350.623L145.557 351.123ZM145.557 447.47L145.057 447.47L145.057 447.97L145.557 447.97L145.557 447.47ZM175.085 447.823C175.28 447.628 175.28 447.312 175.085 447.116L171.903 443.934C171.708 443.739 171.391 443.739 171.196 443.934C171.001 444.13 171.001 444.446 171.196 444.642L174.024 447.47L171.196 450.298C171.001 450.494 171.001 450.81 171.196 451.005C171.391 451.201 171.708 451.201 171.903 451.005L175.085 447.823ZM125.456 351.623L145.557 351.623L145.557 350.623L125.456 350.623L125.456 351.623ZM145.057 351.123L145.057 447.47L146.057 447.47L146.057 351.123L145.057 351.123ZM145.557 447.97L174.731 447.97L174.731 446.97L145.557 446.97L145.557 447.97Z" fill="#878D96"/>
<path d="M96.0112 409.997C96.2065 410.192 96.523 410.192 96.7183 409.997L99.9003 406.815C100.096 406.62 100.096 406.303 99.9003 406.108C99.705 405.913 99.3884 405.913 99.1932 406.108L96.3647 408.936L93.5363 406.108C93.3411 405.913 93.0245 405.913 92.8292 406.108C92.6339 406.303 92.6339 406.62 92.8292 406.815L96.0112 409.997ZM95.8647 360.961L95.8647 409.643L96.8647 409.643L96.8647 360.961L95.8647 360.961Z" fill="#878D96"/>
<rect width="66.4929" height="10.6864" transform="translate(276.845 236.287)" fill="white" fill-opacity="0.01" style="mix-blend-mode:multiply"/>
<g clip-path="url(#clip7_1_15218)">
<rect width="59.4929" height="0" transform="translate(276.845 241.63)" fill="white" fill-opacity="0.01" style="mix-blend-mode:multiply"/>
<path d="M276.845 241.63H336.338" stroke="black"/>
</g>
<rect width="8" height="8" transform="translate(335.338 237.63)" fill="white" fill-opacity="0.01" style="mix-blend-mode:multiply"/>
<path d="M335.338 237.63L343.338 241.63L335.338 245.63V237.63Z" fill="black"/>
<rect width="110.426" height="10.6864" transform="translate(570.126 236.287)" fill="white" fill-opacity="0.01" style="mix-blend-mode:multiply"/>
<g clip-path="url(#clip8_1_15218)">
<rect width="103.426" height="0" transform="translate(570.126 241.63)" fill="white" fill-opacity="0.01" style="mix-blend-mode:multiply"/>
<path d="M570.126 241.63H673.552" stroke="black"/>
</g>
<rect width="8" height="8" transform="translate(672.552 237.63)" fill="white" fill-opacity="0.01" style="mix-blend-mode:multiply"/>
<path d="M672.552 237.63L680.552 241.63L672.552 245.63V237.63Z" fill="black"/>
<rect width="65.3055" height="10.6864" transform="translate(908.527 236.287)" fill="white" fill-opacity="0.01" style="mix-blend-mode:multiply"/>
<g clip-path="url(#clip9_1_15218)">
<rect width="58.3055" height="0" transform="translate(908.527 241.63)" fill="white" fill-opacity="0.01" style="mix-blend-mode:multiply"/>
<path d="M908.527 241.63H966.833" stroke="black"/>
</g>
<rect width="8" height="8" transform="translate(965.833 237.63)" fill="white" fill-opacity="0.01" style="mix-blend-mode:multiply"/>
<path d="M965.833 237.63L973.833 241.63L965.833 245.63V237.63Z" fill="black"/>
<rect width="65.3055" height="65.3055" transform="translate(756.544 303.967)" fill="#0F62FE"/>
<rect width="28.4969" height="28.4969" transform="translate(775.542 321.778)" fill="white" fill-opacity="0.01" style="mix-blend-mode:multiply"/>
<path d="M798.696 341.369C798.067 341.373 797.451 341.548 796.915 341.877L794.163 339.116C794.803 338.213 795.147 337.133 795.147 336.026C795.147 334.919 794.803 333.839 794.163 332.936L796.915 330.175C797.451 330.504 798.067 330.68 798.696 330.683C799.4 330.683 800.089 330.474 800.675 330.083C801.261 329.691 801.717 329.135 801.987 328.484C802.257 327.833 802.327 327.117 802.19 326.426C802.052 325.735 801.713 325.1 801.215 324.602C800.717 324.104 800.082 323.765 799.391 323.627C798.7 323.49 797.984 323.56 797.333 323.83C796.682 324.1 796.126 324.556 795.734 325.142C795.343 325.728 795.134 326.416 795.134 327.121C795.137 327.75 795.312 328.366 795.641 328.902L792.881 331.654C791.978 331.013 790.898 330.67 789.791 330.67C788.684 330.67 787.604 331.013 786.701 331.654L783.94 328.902C784.269 328.366 784.444 327.75 784.447 327.121C784.447 326.416 784.239 325.728 783.847 325.142C783.456 324.556 782.899 324.1 782.249 323.83C781.598 323.56 780.881 323.49 780.19 323.627C779.499 323.765 778.865 324.104 778.367 324.602C777.868 325.1 777.529 325.735 777.392 326.426C777.254 327.117 777.325 327.833 777.594 328.484C777.864 329.135 778.321 329.691 778.906 330.083C779.492 330.474 780.181 330.683 780.885 330.683C781.514 330.68 782.13 330.504 782.666 330.175L785.418 332.936C784.778 333.839 784.434 334.919 784.434 336.026C784.434 337.133 784.778 338.213 785.418 339.116L782.666 341.877C782.13 341.548 781.514 341.373 780.885 341.369C780.181 341.369 779.492 341.578 778.906 341.97C778.321 342.361 777.864 342.917 777.594 343.568C777.325 344.219 777.254 344.935 777.392 345.626C777.529 346.317 777.868 346.952 778.367 347.45C778.865 347.949 779.499 348.288 780.19 348.425C780.881 348.563 781.598 348.492 782.249 348.223C782.899 347.953 783.456 347.496 783.847 346.911C784.239 346.325 784.447 345.636 784.447 344.932C784.444 344.303 784.269 343.687 783.94 343.15L786.701 340.399C787.604 341.039 788.684 341.383 789.791 341.383C790.898 341.383 791.978 341.039 792.881 340.399L795.641 343.15C795.312 343.687 795.137 344.303 795.134 344.932C795.134 345.636 795.343 346.325 795.734 346.911C796.126 347.496 796.682 347.953 797.333 348.223C797.984 348.492 798.7 348.563 799.391 348.425C800.082 348.288 800.717 347.949 801.215 347.45C801.713 346.952 802.052 346.317 802.19 345.626C802.327 344.935 802.257 344.219 801.987 343.568C801.717 342.917 801.261 342.361 800.675 341.97C800.089 341.578 799.4 341.369 798.696 341.369ZM798.696 325.34C799.048 325.34 799.393 325.444 799.685 325.64C799.978 325.836 800.207 326.114 800.341 326.439C800.476 326.765 800.512 327.123 800.443 327.468C800.374 327.814 800.204 328.131 799.955 328.38C799.706 328.629 799.389 328.799 799.043 328.868C798.698 328.937 798.34 328.901 798.014 328.766C797.689 328.632 797.411 328.403 797.215 328.11C797.019 327.818 796.915 327.473 796.915 327.121C796.915 326.649 797.103 326.196 797.437 325.862C797.771 325.528 798.224 325.34 798.696 325.34V325.34ZM779.104 327.121C779.104 326.769 779.209 326.424 779.404 326.131C779.6 325.839 779.878 325.61 780.204 325.475C780.529 325.341 780.887 325.305 781.233 325.374C781.578 325.443 781.896 325.612 782.145 325.862C782.394 326.111 782.563 326.428 782.632 326.773C782.701 327.119 782.666 327.477 782.531 327.803C782.396 328.128 782.168 328.406 781.875 328.602C781.582 328.798 781.238 328.902 780.885 328.902C780.413 328.902 779.96 328.714 779.626 328.38C779.292 328.046 779.104 327.593 779.104 327.121V327.121ZM780.885 346.713C780.533 346.713 780.189 346.608 779.896 346.412C779.603 346.217 779.375 345.939 779.24 345.613C779.105 345.288 779.07 344.93 779.139 344.584C779.207 344.239 779.377 343.921 779.626 343.672C779.875 343.423 780.192 343.253 780.538 343.185C780.883 343.116 781.241 343.151 781.567 343.286C781.892 343.421 782.171 343.649 782.366 343.942C782.562 344.235 782.666 344.579 782.666 344.932C782.666 345.404 782.479 345.857 782.145 346.191C781.811 346.525 781.358 346.713 780.885 346.713ZM789.791 339.588C789.086 339.588 788.397 339.379 787.812 338.988C787.226 338.597 786.769 338.04 786.5 337.389C786.23 336.739 786.16 336.022 786.297 335.331C786.434 334.64 786.774 334.006 787.272 333.507C787.77 333.009 788.405 332.67 789.096 332.533C789.787 332.395 790.503 332.466 791.154 332.735C791.805 333.005 792.361 333.461 792.752 334.047C793.144 334.633 793.353 335.322 793.353 336.026C793.353 336.971 792.977 337.877 792.309 338.545C791.641 339.213 790.735 339.588 789.791 339.588ZM798.696 346.713C798.344 346.713 797.999 346.608 797.706 346.412C797.414 346.217 797.185 345.939 797.05 345.613C796.916 345.288 796.88 344.93 796.949 344.584C797.018 344.239 797.187 343.921 797.437 343.672C797.686 343.423 798.003 343.253 798.348 343.185C798.694 343.116 799.052 343.151 799.378 343.286C799.703 343.421 799.981 343.649 800.177 343.942C800.373 344.235 800.477 344.579 800.477 344.932C800.477 345.404 800.289 345.857 799.955 346.191C799.621 346.525 799.168 346.713 798.696 346.713Z" fill="white"/>
<rect width="65.3055" height="65.3055" transform="translate(756.544 414.393)" fill="#0F62FE"/>
<rect width="28.4969" height="28.4969" transform="translate(774.354 432.204)" fill="white" fill-opacity="0.01" style="mix-blend-mode:multiply"/>
<path d="M797.508 451.795C796.88 451.798 796.263 451.974 795.727 452.303L792.976 449.542C793.616 448.639 793.96 447.559 793.96 446.452C793.96 445.345 793.616 444.265 792.976 443.362L795.727 440.601C796.263 440.93 796.88 441.106 797.508 441.109C798.213 441.109 798.902 440.9 799.487 440.509C800.073 440.117 800.53 439.561 800.799 438.91C801.069 438.259 801.14 437.543 801.002 436.852C800.865 436.161 800.525 435.526 800.027 435.028C799.529 434.53 798.894 434.191 798.203 434.053C797.512 433.916 796.796 433.986 796.145 434.256C795.494 434.525 794.938 434.982 794.547 435.568C794.155 436.154 793.946 436.842 793.946 437.547C793.949 438.176 794.125 438.792 794.454 439.328L791.693 442.08C790.79 441.439 789.71 441.095 788.603 441.095C787.496 441.095 786.416 441.439 785.513 442.08L782.752 439.328C783.081 438.792 783.257 438.176 783.26 437.547C783.26 436.842 783.051 436.154 782.66 435.568C782.268 434.982 781.712 434.525 781.061 434.256C780.41 433.986 779.694 433.916 779.003 434.053C778.312 434.191 777.677 434.53 777.179 435.028C776.681 435.526 776.342 436.161 776.204 436.852C776.067 437.543 776.137 438.259 776.407 438.91C776.677 439.561 777.133 440.117 777.719 440.509C778.305 440.9 778.993 441.109 779.698 441.109C780.327 441.106 780.943 440.93 781.479 440.601L784.231 443.362C783.59 444.265 783.246 445.345 783.246 446.452C783.246 447.559 783.59 448.639 784.231 449.542L781.479 452.303C780.943 451.974 780.327 451.798 779.698 451.795C778.993 451.795 778.305 452.004 777.719 452.396C777.133 452.787 776.677 453.343 776.407 453.994C776.137 454.645 776.067 455.361 776.204 456.052C776.342 456.743 776.681 457.378 777.179 457.876C777.677 458.374 778.312 458.714 779.003 458.851C779.694 458.988 780.41 458.918 781.061 458.648C781.712 458.379 782.268 457.922 782.66 457.336C783.051 456.751 783.26 456.062 783.26 455.357C783.257 454.728 783.081 454.112 782.752 453.576L785.513 450.825C786.416 451.465 787.496 451.809 788.603 451.809C789.71 451.809 790.79 451.465 791.693 450.825L794.454 453.576C794.125 454.112 793.949 454.728 793.946 455.357C793.946 456.062 794.155 456.751 794.547 457.336C794.938 457.922 795.494 458.379 796.145 458.648C796.796 458.918 797.512 458.988 798.203 458.851C798.894 458.714 799.529 458.374 800.027 457.876C800.525 457.378 800.865 456.743 801.002 456.052C801.14 455.361 801.069 454.645 800.799 453.994C800.53 453.343 800.073 452.787 799.487 452.396C798.902 452.004 798.213 451.795 797.508 451.795ZM797.508 435.766C797.861 435.766 798.205 435.87 798.498 436.066C798.791 436.262 799.019 436.54 799.154 436.865C799.289 437.191 799.324 437.549 799.255 437.894C799.187 438.24 799.017 438.557 798.768 438.806C798.519 439.055 798.201 439.225 797.856 439.294C797.51 439.362 797.152 439.327 796.827 439.192C796.501 439.057 796.223 438.829 796.028 438.536C795.832 438.243 795.727 437.899 795.727 437.547C795.727 437.074 795.915 436.621 796.249 436.287C796.583 435.953 797.036 435.766 797.508 435.766V435.766ZM777.917 437.547C777.917 437.194 778.021 436.85 778.217 436.557C778.413 436.264 778.691 436.036 779.016 435.901C779.342 435.766 779.7 435.731 780.045 435.8C780.391 435.869 780.708 436.038 780.957 436.287C781.206 436.536 781.376 436.854 781.445 437.199C781.513 437.545 781.478 437.903 781.343 438.228C781.209 438.554 780.98 438.832 780.687 439.028C780.394 439.223 780.05 439.328 779.698 439.328C779.225 439.328 778.772 439.14 778.438 438.806C778.104 438.472 777.917 438.019 777.917 437.547V437.547ZM779.698 457.138C779.346 457.138 779.001 457.034 778.708 456.838C778.415 456.643 778.187 456.364 778.052 456.039C777.918 455.713 777.882 455.355 777.951 455.01C778.02 454.664 778.189 454.347 778.438 454.098C778.688 453.849 779.005 453.679 779.35 453.61C779.696 453.542 780.054 453.577 780.379 453.712C780.705 453.847 780.983 454.075 781.179 454.368C781.374 454.661 781.479 455.005 781.479 455.357C781.479 455.83 781.291 456.283 780.957 456.617C780.623 456.951 780.17 457.138 779.698 457.138ZM788.603 450.014C787.899 450.014 787.21 449.805 786.624 449.414C786.038 449.022 785.582 448.466 785.312 447.815C785.043 447.164 784.972 446.448 785.109 445.757C785.247 445.066 785.586 444.431 786.084 443.933C786.583 443.435 787.217 443.096 787.908 442.958C788.599 442.821 789.315 442.891 789.966 443.161C790.617 443.431 791.174 443.887 791.565 444.473C791.956 445.059 792.165 445.748 792.165 446.452C792.165 447.397 791.79 448.303 791.122 448.971C790.454 449.639 789.548 450.014 788.603 450.014ZM797.508 457.138C797.156 457.138 796.812 457.034 796.519 456.838C796.226 456.643 795.998 456.364 795.863 456.039C795.728 455.713 795.693 455.355 795.762 455.01C795.83 454.664 796 454.347 796.249 454.098C796.498 453.849 796.815 453.679 797.161 453.61C797.506 453.542 797.865 453.577 798.19 453.712C798.515 453.847 798.794 454.075 798.989 454.368C799.185 454.661 799.29 455.005 799.29 455.357C799.29 455.83 799.102 456.283 798.768 456.617C798.434 456.951 797.981 457.138 797.508 457.138Z" fill="white"/>
<rect width="65.3055" height="65.3055" transform="translate(1013.02 303.967)" fill="#0F62FE"/>
<rect width="28.4969" height="28.4969" transform="translate(1032.01 321.778)" fill="white" fill-opacity="0.01" style="mix-blend-mode:multiply"/>
<path d="M1058.19 334.715L1047.58 324.101C1047.21 323.74 1046.74 323.559 1046.26 323.559C1045.79 323.559 1045.31 323.74 1044.95 324.101L1034.34 334.715C1033.98 335.076 1033.8 335.551 1033.8 336.026C1033.8 336.502 1033.98 336.976 1034.34 337.338L1044.95 347.95C1045.31 348.313 1045.79 348.494 1046.26 348.494C1046.74 348.494 1047.21 348.313 1047.58 347.951L1058.19 337.339C1058.55 336.976 1058.73 336.502 1058.73 336.026C1058.73 335.551 1058.55 335.076 1058.19 334.715ZM1046.26 346.745L1035.55 336.026L1046.26 325.308L1056.98 336.026L1046.26 346.745Z" fill="white"/>
<rect width="65.3055" height="65.3055" transform="translate(1013.02 414.393)" fill="#0F62FE"/>
<rect width="28.4969" height="28.4969" transform="translate(1030.83 432.204)" fill="white" fill-opacity="0.01" style="mix-blend-mode:multiply"/>
<path d="M1057 445.14L1046.39 434.527C1046.03 434.165 1045.55 433.985 1045.08 433.985C1044.6 433.985 1044.13 434.165 1043.76 434.527L1033.15 445.14C1032.79 445.502 1032.61 445.976 1032.61 446.452C1032.61 446.928 1032.79 447.402 1033.15 447.764L1043.76 458.376C1044.13 458.739 1044.6 458.919 1045.08 458.919C1045.55 458.919 1046.03 458.739 1046.39 458.377L1057 447.765C1057.36 447.402 1057.54 446.928 1057.54 446.452C1057.54 445.976 1057.36 445.502 1057 445.14ZM1045.08 457.17L1034.36 446.452L1045.08 435.734L1055.79 446.452L1045.08 457.17Z" fill="white"/>
<rect width="65.3055" height="65.3055" transform="translate(1115.13 303.967)" fill="#0F62FE"/>
<rect width="28.4969" height="28.4969" transform="translate(1134.13 321.778)" fill="white" fill-opacity="0.01" style="mix-blend-mode:multiply"/>
<path d="M1160.3 334.715L1149.69 324.101C1149.33 323.74 1148.85 323.559 1148.38 323.559C1147.9 323.559 1147.43 323.74 1147.07 324.101L1136.45 334.715C1136.09 335.076 1135.91 335.551 1135.91 336.026C1135.91 336.502 1136.09 336.976 1136.45 337.338L1147.06 347.95C1147.43 348.313 1147.9 348.494 1148.38 348.494C1148.85 348.494 1149.33 348.313 1149.69 347.951L1160.3 337.339C1160.66 336.976 1160.84 336.502 1160.84 336.026C1160.84 335.551 1160.66 335.076 1160.3 334.715ZM1148.38 346.745L1137.66 336.026L1148.38 325.308L1159.1 336.026L1148.38 346.745Z" fill="white"/>
<rect width="65.3055" height="65.3055" transform="translate(1115.13 414.393)" fill="#0F62FE"/>
<rect width="28.4969" height="28.4969" transform="translate(1132.94 432.204)" fill="white" fill-opacity="0.01" style="mix-blend-mode:multiply"/>
<path d="M1159.12 445.14L1148.5 434.527C1148.14 434.165 1147.66 433.985 1147.19 433.985C1146.72 433.985 1146.24 434.165 1145.88 434.527L1135.26 445.14C1134.9 445.502 1134.72 445.976 1134.72 446.452C1134.72 446.928 1134.9 447.402 1135.26 447.764L1145.88 458.376C1146.24 458.739 1146.72 458.919 1147.19 458.919C1147.66 458.919 1148.14 458.739 1148.5 458.377L1159.11 447.765C1159.48 447.402 1159.66 446.928 1159.66 446.452C1159.66 445.976 1159.48 445.502 1159.12 445.14ZM1147.19 457.17L1136.47 446.452L1147.19 435.734L1157.91 446.452L1147.19 457.17Z" fill="white"/>
<defs>
<clipPath id="clip0_1_15218">
<rect width="246.974" height="48" fill="white" transform="translate(31.0591 207.79)"/>
</clipPath>
<clipPath id="clip1_1_15218">
<rect width="227.976" height="48" fill="white" transform="translate(343.338 205.415)"/>
</clipPath>
<clipPath id="clip2_1_15218">
<rect width="434.578" height="65.3055" fill="white" transform="translate(0.1875 127.049)"/>
</clipPath>
<clipPath id="clip3_1_15218">
<rect width="607" height="48" fill="white" transform="translate(646 127)"/>
</clipPath>
<clipPath id="clip4_1_15218">
<rect width="24" height="24" fill="white" transform="translate(662 139)"/>
</clipPath>
<clipPath id="clip5_1_15218">
<rect width="227.976" height="48" fill="white" transform="translate(680.552 208.978)"/>
</clipPath>
<clipPath id="clip6_1_15218">
<rect width="246.974" height="48" fill="white" transform="translate(973.833 207.79)"/>
</clipPath>
<clipPath id="clip7_1_15218">
<rect width="59.4929" height="8" fill="white" transform="translate(276.845 237.63)"/>
</clipPath>
<clipPath id="clip8_1_15218">
<rect width="103.426" height="8" fill="white" transform="translate(570.126 237.63)"/>
</clipPath>
<clipPath id="clip9_1_15218">
<rect width="58.3055" height="8" fill="white" transform="translate(908.527 237.63)"/>
</clipPath>
</defs>
</svg>
