<svg width="1102" height="545" viewBox="0 0 1102 545" fill="none" xmlns="http://www.w3.org/2000/svg">
<rect width="1102" height="545" fill="white" fill-opacity="0.49"/>
<rect width="48" height="48" transform="translate(23 33)" fill="white" fill-opacity="0.01" style="mix-blend-mode:multiply"/>
<circle cx="47" cy="57" r="24" fill="black"/>
<rect width="24" height="24" transform="translate(35 45)" fill="white" fill-opacity="0.01" style="mix-blend-mode:multiply"/>
<path d="M47 48C47.7417 48 48.4667 48.2199 49.0834 48.632C49.7001 49.044 50.1807 49.6297 50.4645 50.3149C50.7484 51.0002 50.8226 51.7542 50.6779 52.4816C50.5333 53.209 50.1761 53.8772 49.6517 54.4017C49.1272 54.9261 48.459 55.2833 47.7316 55.4279C47.0042 55.5726 46.2502 55.4984 45.5649 55.2145C44.8797 54.9307 44.294 54.4501 43.882 53.8334C43.4699 53.2167 43.25 52.4917 43.25 51.75C43.25 50.7554 43.6451 49.8016 44.3483 49.0983C45.0516 48.3951 46.0054 48 47 48ZM47 46.5C45.9616 46.5 44.9466 46.8079 44.0833 47.3848C43.2199 47.9617 42.547 48.7816 42.1496 49.7409C41.7523 50.7002 41.6483 51.7558 41.8509 52.7742C42.0534 53.7926 42.5535 54.7281 43.2877 55.4623C44.0219 56.1965 44.9574 56.6965 45.9758 56.8991C46.9942 57.1017 48.0498 56.9977 49.0091 56.6004C49.9684 56.203 50.7883 55.5301 51.3652 54.6667C51.9421 53.8034 52.25 52.7884 52.25 51.75C52.25 50.3576 51.6969 49.0223 50.7123 48.0377C49.7277 47.0531 48.3924 46.5 47 46.5Z" fill="white"/>
<path d="M54.5 67.5H53V63.75C53 63.2575 52.903 62.7699 52.7145 62.3149C52.5261 61.86 52.2499 61.4466 51.9017 61.0983C51.5534 60.7501 51.14 60.4739 50.6851 60.2855C50.2301 60.097 49.7425 60 49.25 60H44.75C43.7554 60 42.8016 60.3951 42.0983 61.0983C41.3951 61.8016 41 62.7554 41 63.75V67.5H39.5V63.75C39.5 62.3576 40.0531 61.0223 41.0377 60.0377C42.0223 59.0531 43.3576 58.5 44.75 58.5H49.25C50.6424 58.5 51.9777 59.0531 52.9623 60.0377C53.9469 61.0223 54.5 62.3576 54.5 63.75V67.5Z" fill="white"/>
<path d="M80.078 52.228H81.898V58.234C81.898 59.76 82.43 60.53 83.83 60.53C85.23 60.53 85.762 59.76 85.762 58.234V52.228H87.582V57.996C87.582 60.866 86.56 62.168 83.816 62.168C81.072 62.168 80.078 60.866 80.078 57.996V52.228ZM92.256 62.168C90.87 62.168 89.96 61.664 89.232 60.824L90.324 59.76C90.856 60.376 91.5 60.754 92.326 60.754C93.18 60.754 93.544 60.432 93.544 59.914C93.544 59.494 93.292 59.228 92.648 59.144L91.92 59.046C90.352 58.85 89.484 58.164 89.484 56.834C89.484 55.42 90.59 54.524 92.256 54.524C93.684 54.524 94.412 54.944 95.112 55.672L94.062 56.722C93.642 56.274 93.026 55.938 92.312 55.938C91.542 55.938 91.206 56.246 91.206 56.694C91.206 57.184 91.472 57.408 92.158 57.52L92.9 57.618C94.496 57.842 95.266 58.556 95.266 59.774C95.266 61.188 94.076 62.168 92.256 62.168ZM99.9623 62.168C97.8063 62.168 96.5183 60.67 96.5183 58.332C96.5183 56.022 97.7643 54.524 99.9063 54.524C102.188 54.524 103.238 56.204 103.238 58.206V58.794H98.3803V58.976C98.3803 60.026 98.9823 60.74 100.158 60.74C101.04 60.74 101.572 60.32 102.02 59.746L102.986 60.824C102.384 61.65 101.32 62.168 99.9623 62.168ZM99.9343 55.868C98.9963 55.868 98.3803 56.568 98.3803 57.576V57.688H101.376V57.562C101.376 56.554 100.858 55.868 99.9343 55.868ZM106.767 62H104.975V54.692H106.767V56.204H106.837C107.019 55.434 107.607 54.692 108.769 54.692H109.161V56.386H108.601C107.397 56.386 106.767 56.722 106.767 57.52V62Z" fill="black"/>
<rect width="180" height="80" transform="translate(119 57)" fill="white" fill-opacity="0.01" style="mix-blend-mode:multiply"/>
<path d="M244 57H244.5V56.5H244V57ZM244 137L246.887 132H241.113L244 137ZM119 57.5H244V56.5H119V57.5ZM243.5 57V132.5H244.5V57H243.5Z" fill="black"/>
<path d="M129.729 37.512H127.065V45H126.057V37.512H123.393V36.624H129.729V37.512ZM132.879 45.144C131.199 45.144 130.095 43.872 130.095 41.904C130.095 39.936 131.199 38.664 132.879 38.664C134.535 38.664 135.555 39.936 135.555 41.688V42.144H131.103V42.432C131.103 43.5 131.787 44.304 132.939 44.304C133.719 44.304 134.319 43.92 134.643 43.236L135.327 43.728C134.931 44.568 134.043 45.144 132.879 45.144ZM132.879 39.468C131.835 39.468 131.103 40.26 131.103 41.34V41.424H134.523V41.292C134.523 40.2 133.863 39.468 132.879 39.468ZM138.417 45H137.457V38.808H138.417V39.948H138.477C138.693 39.36 139.257 38.808 140.265 38.808H140.637V39.768H140.073C139.041 39.768 138.417 40.212 138.417 40.8V45ZM143.143 45H142.183V38.808H143.143V39.948H143.203C143.419 39.36 143.983 38.808 144.991 38.808H145.363V39.768H144.799C143.767 39.768 143.143 40.212 143.143 40.8V45ZM151.903 45H151.363C150.655 45 150.367 44.568 150.295 43.992H150.235C149.971 44.748 149.311 45.144 148.447 45.144C147.139 45.144 146.371 44.424 146.371 43.272C146.371 42.108 147.211 41.46 149.011 41.46H150.235V40.848C150.235 39.972 149.755 39.492 148.771 39.492C148.027 39.492 147.535 39.852 147.199 40.416L146.623 39.876C146.959 39.216 147.703 38.664 148.819 38.664C150.307 38.664 151.195 39.444 151.195 40.752V44.16H151.903V45ZM148.603 44.328C149.551 44.328 150.235 43.836 150.235 43.2V42.18H148.963C147.871 42.18 147.379 42.516 147.379 43.116V43.368C147.379 43.98 147.859 44.328 148.603 44.328ZM153.929 45V39.648H152.921V38.808H153.929V37.56C153.929 36.708 154.373 36.12 155.285 36.12H156.221V36.96H154.889V38.808H156.221V39.648H154.889V45H153.929ZM160.096 45.144C158.44 45.144 157.3 43.872 157.3 41.904C157.3 39.936 158.44 38.664 160.096 38.664C161.752 38.664 162.892 39.936 162.892 41.904C162.892 43.872 161.752 45.144 160.096 45.144ZM160.096 44.292C161.128 44.292 161.86 43.656 161.86 42.348V41.46C161.86 40.152 161.128 39.516 160.096 39.516C159.064 39.516 158.332 40.152 158.332 41.46V42.348C158.332 43.656 159.064 44.292 160.096 44.292ZM165.751 45H164.791V38.808H165.751V39.948H165.811C166.027 39.36 166.591 38.808 167.599 38.808H167.971V39.768H167.407C166.375 39.768 165.751 40.212 165.751 40.8V45ZM170.478 45H169.518V38.808H170.478V39.816H170.526C170.802 39.18 171.234 38.664 172.194 38.664C173.01 38.664 173.754 39.036 174.09 39.924H174.114C174.342 39.252 174.942 38.664 175.998 38.664C177.258 38.664 178.014 39.528 178.014 41.028V45H177.054V41.196C177.054 40.104 176.634 39.528 175.698 39.528C174.942 39.528 174.246 39.912 174.246 40.704V45H173.286V41.196C173.286 40.092 172.866 39.528 171.954 39.528C171.198 39.528 170.478 39.912 170.478 40.704V45ZM183.47 47.4V38.808H184.43V39.816H184.478C184.802 39.036 185.438 38.664 186.29 38.664C187.838 38.664 188.81 39.924 188.81 41.904C188.81 43.884 187.838 45.144 186.29 45.144C185.438 45.144 184.85 44.76 184.478 43.992H184.43V47.4H183.47ZM186.026 44.28C187.106 44.28 187.778 43.536 187.778 42.432V41.376C187.778 40.272 187.106 39.528 186.026 39.528C185.15 39.528 184.43 40.032 184.43 40.716V43.02C184.43 43.824 185.15 44.28 186.026 44.28ZM192.623 45H191.771C191.111 45 190.751 44.58 190.751 44.004V36.12H191.711V44.16H192.623V45ZM199.381 45H198.841C198.133 45 197.845 44.568 197.773 43.992H197.713C197.449 44.748 196.789 45.144 195.925 45.144C194.617 45.144 193.849 44.424 193.849 43.272C193.849 42.108 194.689 41.46 196.489 41.46H197.713V40.848C197.713 39.972 197.233 39.492 196.249 39.492C195.505 39.492 195.013 39.852 194.677 40.416L194.101 39.876C194.437 39.216 195.181 38.664 196.297 38.664C197.785 38.664 198.673 39.444 198.673 40.752V44.16H199.381V45ZM196.081 44.328C197.029 44.328 197.713 43.836 197.713 43.2V42.18H196.441C195.349 42.18 194.857 42.516 194.857 43.116V43.368C194.857 43.98 195.337 44.328 196.081 44.328ZM202.031 45H201.071V38.808H202.031V39.816H202.079C202.379 39.12 202.907 38.664 203.831 38.664C205.103 38.664 205.907 39.528 205.907 41.028V45H204.947V41.196C204.947 40.092 204.467 39.528 203.543 39.528C202.775 39.528 202.031 39.912 202.031 40.704V45Z" fill="black"/>
<path d="M130.063 69.512H127.399V77H126.391V69.512H123.727V68.624H130.063V69.512ZM133.213 77.144C131.533 77.144 130.429 75.872 130.429 73.904C130.429 71.936 131.533 70.664 133.213 70.664C134.869 70.664 135.889 71.936 135.889 73.688V74.144H131.437V74.432C131.437 75.5 132.121 76.304 133.273 76.304C134.053 76.304 134.653 75.92 134.977 75.236L135.661 75.728C135.265 76.568 134.377 77.144 133.213 77.144ZM133.213 71.468C132.169 71.468 131.437 72.26 131.437 73.34V73.424H134.857V73.292C134.857 72.2 134.197 71.468 133.213 71.468ZM138.751 77H137.791V70.808H138.751V71.948H138.811C139.027 71.36 139.591 70.808 140.599 70.808H140.971V71.768H140.407C139.375 71.768 138.751 72.212 138.751 72.8V77ZM143.477 77H142.517V70.808H143.477V71.948H143.537C143.753 71.36 144.317 70.808 145.325 70.808H145.697V71.768H145.133C144.101 71.768 143.477 72.212 143.477 72.8V77ZM152.237 77H151.697C150.989 77 150.701 76.568 150.629 75.992H150.569C150.305 76.748 149.645 77.144 148.781 77.144C147.473 77.144 146.705 76.424 146.705 75.272C146.705 74.108 147.545 73.46 149.345 73.46H150.569V72.848C150.569 71.972 150.089 71.492 149.105 71.492C148.361 71.492 147.869 71.852 147.533 72.416L146.957 71.876C147.293 71.216 148.037 70.664 149.153 70.664C150.641 70.664 151.529 71.444 151.529 72.752V76.16H152.237V77ZM148.937 76.328C149.885 76.328 150.569 75.836 150.569 75.2V74.18H149.297C148.205 74.18 147.713 74.516 147.713 75.116V75.368C147.713 75.98 148.193 76.328 148.937 76.328ZM154.263 77V71.648H153.255V70.808H154.263V69.56C154.263 68.708 154.707 68.12 155.619 68.12H156.555V68.96H155.223V70.808H156.555V71.648H155.223V77H154.263ZM160.431 77.144C158.775 77.144 157.635 75.872 157.635 73.904C157.635 71.936 158.775 70.664 160.431 70.664C162.087 70.664 163.227 71.936 163.227 73.904C163.227 75.872 162.087 77.144 160.431 77.144ZM160.431 76.292C161.463 76.292 162.195 75.656 162.195 74.348V73.46C162.195 72.152 161.463 71.516 160.431 71.516C159.399 71.516 158.667 72.152 158.667 73.46V74.348C158.667 75.656 159.399 76.292 160.431 76.292ZM166.085 77H165.125V70.808H166.085V71.948H166.145C166.361 71.36 166.925 70.808 167.933 70.808H168.305V71.768H167.741C166.709 71.768 166.085 72.212 166.085 72.8V77ZM170.812 77H169.852V70.808H170.812V71.816H170.86C171.136 71.18 171.568 70.664 172.528 70.664C173.344 70.664 174.088 71.036 174.424 71.924H174.448C174.676 71.252 175.276 70.664 176.332 70.664C177.592 70.664 178.348 71.528 178.348 73.028V77H177.388V73.196C177.388 72.104 176.968 71.528 176.032 71.528C175.276 71.528 174.58 71.912 174.58 72.704V77H173.62V73.196C173.62 72.092 173.2 71.528 172.288 71.528C171.532 71.528 170.812 71.912 170.812 72.704V77ZM188.844 77H188.304C187.596 77 187.308 76.568 187.236 75.992H187.176C186.912 76.748 186.252 77.144 185.388 77.144C184.08 77.144 183.312 76.424 183.312 75.272C183.312 74.108 184.152 73.46 185.952 73.46H187.176V72.848C187.176 71.972 186.696 71.492 185.712 71.492C184.968 71.492 184.476 71.852 184.14 72.416L183.564 71.876C183.9 71.216 184.644 70.664 185.76 70.664C187.248 70.664 188.136 71.444 188.136 72.752V76.16H188.844V77ZM185.544 76.328C186.492 76.328 187.176 75.836 187.176 75.2V74.18H185.904C184.812 74.18 184.32 74.516 184.32 75.116V75.368C184.32 75.98 184.8 76.328 185.544 76.328ZM190.534 79.4V70.808H191.494V71.816H191.542C191.866 71.036 192.502 70.664 193.354 70.664C194.902 70.664 195.874 71.924 195.874 73.904C195.874 75.884 194.902 77.144 193.354 77.144C192.502 77.144 191.914 76.76 191.542 75.992H191.494V79.4H190.534ZM193.09 76.28C194.17 76.28 194.842 75.536 194.842 74.432V73.376C194.842 72.272 194.17 71.528 193.09 71.528C192.214 71.528 191.494 72.032 191.494 72.716V75.02C191.494 75.824 192.214 76.28 193.09 76.28ZM197.815 79.4V70.808H198.775V71.816H198.823C199.147 71.036 199.783 70.664 200.635 70.664C202.183 70.664 203.155 71.924 203.155 73.904C203.155 75.884 202.183 77.144 200.635 77.144C199.783 77.144 199.195 76.76 198.823 75.992H198.775V79.4H197.815ZM200.371 76.28C201.451 76.28 202.123 75.536 202.123 74.432V73.376C202.123 72.272 201.451 71.528 200.371 71.528C199.495 71.528 198.775 72.032 198.775 72.716V75.02C198.775 75.824 199.495 76.28 200.371 76.28ZM206.968 77H206.116C205.456 77 205.096 76.58 205.096 76.004V68.12H206.056V76.16H206.968V77ZM210.885 75.02L212.385 70.808H213.333L210.561 78.44C210.285 79.184 210.033 79.4 209.121 79.4H208.629V78.56H209.601L210.069 77.24L207.753 70.808H208.713L210.201 75.02L210.489 76.028H210.549L210.885 75.02Z" fill="black"/>
<rect x="24.5" y="140.5" width="507" height="382" fill="#F2F4F8" stroke="#D9D9D9"/>
<rect x="50.5" y="208.5" width="207" height="287" fill="white" fill-opacity="0.01" style="mix-blend-mode:multiply"/>
<rect x="50.5" y="208.5" width="207" height="287" stroke="#A56EFF"/>
<rect x="51" y="209" width="206" height="286" fill="white"/>
<g clip-path="url(#clip0_2_1397)">
<path d="M107.148 237V227.228H109.234L111.74 232.002H111.796L114.274 227.228H116.276V237H114.526V229.986H114.47L113.714 231.54L111.712 235.236L109.71 231.54L108.954 229.986H108.898V237H107.148ZM121.524 237.168C119.438 237.168 118.136 235.684 118.136 233.332C118.136 230.994 119.438 229.524 121.524 229.524C123.624 229.524 124.926 230.994 124.926 233.332C124.926 235.684 123.624 237.168 121.524 237.168ZM121.524 235.726C122.462 235.726 123.05 235.124 123.05 234.018V232.66C123.05 231.568 122.462 230.966 121.524 230.966C120.6 230.966 120.012 231.568 120.012 232.66V234.018C120.012 235.124 120.6 235.726 121.524 235.726ZM131.21 237V235.782H131.14C130.874 236.608 130.09 237.168 129.124 237.168C127.29 237.168 126.268 235.782 126.268 233.332C126.268 230.896 127.29 229.524 129.124 229.524C130.09 229.524 130.888 230.056 131.14 230.896H131.21V226.64H133.002V237H131.21ZM129.698 235.684C130.552 235.684 131.21 235.25 131.21 234.494V232.17C131.21 231.456 130.552 230.994 129.698 230.994C128.774 230.994 128.144 231.68 128.144 232.716V233.976C128.144 235.012 128.774 235.684 129.698 235.684ZM139.597 237V235.782H139.527C139.275 236.51 138.687 237.168 137.483 237.168C135.985 237.168 135.145 236.132 135.145 234.312V229.692H136.937V234.13C136.937 235.138 137.315 235.684 138.169 235.684C138.883 235.684 139.597 235.306 139.597 234.522V229.692H141.389V237H139.597ZM146.377 237H145.411C144.193 237 143.619 236.356 143.619 235.236V226.64H145.411V235.572H146.377V237ZM150.849 237.168C148.693 237.168 147.405 235.67 147.405 233.332C147.405 231.022 148.651 229.524 150.793 229.524C153.075 229.524 154.125 231.204 154.125 233.206V233.794H149.267V233.976C149.267 235.026 149.869 235.74 151.045 235.74C151.927 235.74 152.459 235.32 152.907 234.746L153.873 235.824C153.271 236.65 152.207 237.168 150.849 237.168ZM150.821 230.868C149.883 230.868 149.267 231.568 149.267 232.576V232.688H152.263V232.562C152.263 231.554 151.745 230.868 150.821 230.868ZM158.255 237.168C156.869 237.168 155.959 236.664 155.231 235.824L156.323 234.76C156.855 235.376 157.499 235.754 158.325 235.754C159.179 235.754 159.543 235.432 159.543 234.914C159.543 234.494 159.291 234.228 158.647 234.144L157.919 234.046C156.351 233.85 155.483 233.164 155.483 231.834C155.483 230.42 156.589 229.524 158.255 229.524C159.683 229.524 160.411 229.944 161.111 230.672L160.061 231.722C159.641 231.274 159.025 230.938 158.311 230.938C157.541 230.938 157.205 231.246 157.205 231.694C157.205 232.184 157.471 232.408 158.157 232.52L158.899 232.618C160.495 232.842 161.265 233.556 161.265 234.774C161.265 236.188 160.075 237.168 158.255 237.168Z" fill="black"/>
<rect width="24" height="24" transform="translate(66 220)" fill="white" fill-opacity="0.01" style="mix-blend-mode:multiply"/>
<path d="M72 223V226H69V223H72ZM73.5 221.5H67.5V227.5H73.5V221.5ZM79.5 223V226H76.5V223H79.5ZM81 221.5H75V227.5H81V221.5ZM87 223V226H84V223H87ZM88.5 221.5H82.5V227.5H88.5V221.5ZM72 230.5V233.5H69V230.5H72ZM73.5 229H67.5V235H73.5V229ZM79.5 230.5V233.5H76.5V230.5H79.5ZM81 229H75V235H81V229ZM87 230.5V233.5H84V230.5H87ZM88.5 229H82.5V235H88.5V229ZM72 238V241H69V238H72ZM73.5 236.5H67.5V242.5H73.5V236.5ZM79.5 238V241H76.5V238H79.5ZM81 236.5H75V242.5H81V236.5ZM87 238V241H84V238H87ZM88.5 236.5H82.5V242.5H88.5V236.5Z" fill="black"/>
<line x1="52" y1="208" x2="52" y2="256" stroke="#A56EFF" stroke-width="4"/>
</g>
<rect x="313.5" y="206.5" width="191" height="287" fill="white" fill-opacity="0.01" style="mix-blend-mode:multiply"/>
<rect x="313.5" y="206.5" width="191" height="287" stroke="#009D9A"/>
<rect x="314" y="207" width="190" height="286" fill="white"/>
<g clip-path="url(#clip1_2_1397)">
<path d="M371.996 235H370.148V225.228H374.544C376.35 225.228 377.442 226.446 377.442 228.252C377.442 230.072 376.35 231.276 374.544 231.276H371.996V235ZM371.996 226.838V229.68H374.376C375.09 229.68 375.524 229.288 375.524 228.574V227.93C375.524 227.216 375.09 226.838 374.376 226.838H371.996ZM380.82 235H379.028V227.692H380.82V229.204H380.89C381.072 228.434 381.66 227.692 382.822 227.692H383.214V229.386H382.654C381.45 229.386 380.82 229.722 380.82 230.52V235ZM387.514 235.168C385.428 235.168 384.126 233.684 384.126 231.332C384.126 228.994 385.428 227.524 387.514 227.524C389.614 227.524 390.916 228.994 390.916 231.332C390.916 233.684 389.614 235.168 387.514 235.168ZM387.514 233.726C388.452 233.726 389.04 233.124 389.04 232.018V230.66C389.04 229.568 388.452 228.966 387.514 228.966C386.59 228.966 386.002 229.568 386.002 230.66V232.018C386.002 233.124 386.59 233.726 387.514 233.726ZM396.251 235H394.123L391.687 227.692H393.451L394.473 230.842L395.187 233.446H395.285L395.999 230.842L396.993 227.692H398.701L396.251 235ZM400.953 226.628C400.211 226.628 399.903 226.25 399.903 225.732V225.452C399.903 224.934 400.211 224.556 400.953 224.556C401.681 224.556 402.003 224.934 402.003 225.452V225.732C402.003 226.25 401.681 226.628 400.953 226.628ZM400.057 235V227.692H401.849V235H400.057ZM408.622 235V233.782H408.552C408.286 234.608 407.502 235.168 406.536 235.168C404.702 235.168 403.68 233.782 403.68 231.332C403.68 228.896 404.702 227.524 406.536 227.524C407.502 227.524 408.3 228.056 408.552 228.896H408.622V224.64H410.414V235H408.622ZM407.11 233.684C407.964 233.684 408.622 233.25 408.622 232.494V230.17C408.622 229.456 407.964 228.994 407.11 228.994C406.186 228.994 405.556 229.68 405.556 230.716V231.976C405.556 233.012 406.186 233.684 407.11 233.684ZM415.595 235.168C413.439 235.168 412.151 233.67 412.151 231.332C412.151 229.022 413.397 227.524 415.539 227.524C417.821 227.524 418.871 229.204 418.871 231.206V231.794H414.013V231.976C414.013 233.026 414.615 233.74 415.791 233.74C416.673 233.74 417.205 233.32 417.653 232.746L418.619 233.824C418.017 234.65 416.953 235.168 415.595 235.168ZM415.567 228.868C414.629 228.868 414.013 229.568 414.013 230.576V230.688H417.009V230.562C417.009 229.554 416.491 228.868 415.567 228.868ZM422.399 235H420.607V227.692H422.399V229.204H422.469C422.651 228.434 423.239 227.692 424.401 227.692H424.793V229.386H424.233C423.029 229.386 422.399 229.722 422.399 230.52V235ZM428.657 235.168C427.271 235.168 426.361 234.664 425.633 233.824L426.725 232.76C427.257 233.376 427.901 233.754 428.727 233.754C429.581 233.754 429.945 233.432 429.945 232.914C429.945 232.494 429.693 232.228 429.049 232.144L428.321 232.046C426.753 231.85 425.885 231.164 425.885 229.834C425.885 228.42 426.991 227.524 428.657 227.524C430.085 227.524 430.813 227.944 431.513 228.672L430.463 229.722C430.043 229.274 429.427 228.938 428.713 228.938C427.943 228.938 427.607 229.246 427.607 229.694C427.607 230.184 427.873 230.408 428.559 230.52L429.301 230.618C430.897 230.842 431.667 231.556 431.667 232.774C431.667 234.188 430.477 235.168 428.657 235.168Z" fill="black"/>
<rect width="24" height="24" transform="translate(329 218)" fill="white" fill-opacity="0.01" style="mix-blend-mode:multiply"/>
<path d="M351.5 230L345.5 236L344.45 234.95L349.4 230L344.45 225.05L345.5 224L351.5 230Z" fill="black"/>
<path d="M344 229.25H338V230.75H344V229.25Z" fill="black"/>
<path d="M330.5 230L336.5 224L337.55 225.05L332.6 230L337.55 234.95L336.5 236L330.5 230Z" fill="black"/>
<line x1="315" y1="206" x2="315" y2="254" stroke="#009D9A" stroke-width="4"/>
</g>
<g clip-path="url(#clip2_2_1397)">
<path d="M47.588 169H41.148V159.228H47.588V160.866H42.996V163.232H47.056V164.87H42.996V167.362H47.588V169ZM48.8205 169L51.3125 165.29L48.8765 161.692H50.9205L52.4325 164.114H52.4885L53.9865 161.692H55.8905L53.4125 165.318L55.9045 169H53.8605L52.3205 166.48H52.2645L50.7245 169H48.8205ZM59.1718 169.168C57.6878 169.168 56.8478 168.314 56.8478 167.012C56.8478 165.514 57.9818 164.772 59.9698 164.772H61.2158V164.24C61.2158 163.428 60.8098 162.952 59.8578 162.952C59.0178 162.952 58.5418 163.372 58.1918 163.876L57.1278 162.924C57.6598 162.084 58.5138 161.524 59.9838 161.524C61.9578 161.524 63.0078 162.462 63.0078 164.128V167.572H63.7358V169H62.7418C61.9718 169 61.4958 168.496 61.3838 167.74H61.2998C61.0618 168.678 60.2638 169.168 59.1718 169.168ZM59.7738 167.866C60.5718 167.866 61.2158 167.502 61.2158 166.816V165.85H60.0678C59.1298 165.85 58.6678 166.172 58.6678 166.746V166.984C58.6678 167.572 59.0738 167.866 59.7738 167.866ZM67.1381 169H65.3461V161.692H67.1381V162.91H67.2081C67.4881 162.14 68.0761 161.524 69.1681 161.524C70.1621 161.524 70.9321 162.014 71.2821 162.994H71.3101C71.5761 162.182 72.3881 161.524 73.5501 161.524C74.9781 161.524 75.7901 162.56 75.7901 164.38V169H73.9981V164.562C73.9981 163.512 73.6201 162.994 72.8221 162.994C72.1221 162.994 71.4641 163.386 71.4641 164.17V169H69.6721V164.562C69.6721 163.512 69.2941 162.994 68.4961 162.994C67.8101 162.994 67.1381 163.386 67.1381 164.17V169ZM77.9338 171.8V161.692H79.7258V162.896H79.7818C80.0478 162.056 80.8318 161.524 81.7978 161.524C83.6458 161.524 84.6678 162.896 84.6678 165.332C84.6678 167.782 83.6458 169.168 81.7978 169.168C80.8318 169.168 80.0618 168.608 79.7818 167.782H79.7258V171.8H77.9338ZM81.2238 167.684C82.1478 167.684 82.7918 167.012 82.7918 165.976V164.716C82.7918 163.68 82.1478 162.994 81.2238 162.994C80.3698 162.994 79.7258 163.456 79.7258 164.17V166.494C79.7258 167.25 80.3698 167.684 81.2238 167.684ZM89.2463 169H88.2803C87.0623 169 86.4883 168.356 86.4883 167.236V158.64H88.2803V167.572H89.2463V169ZM93.7176 169.168C91.5616 169.168 90.2736 167.67 90.2736 165.332C90.2736 163.022 91.5196 161.524 93.6616 161.524C95.9436 161.524 96.9936 163.204 96.9936 165.206V165.794H92.1356V165.976C92.1356 167.026 92.7376 167.74 93.9136 167.74C94.7956 167.74 95.3276 167.32 95.7756 166.746L96.7416 167.824C96.1396 168.65 95.0756 169.168 93.7176 169.168ZM93.6896 162.868C92.7516 162.868 92.1356 163.568 92.1356 164.576V164.688H95.1316V164.562C95.1316 163.554 94.6136 162.868 93.6896 162.868Z" fill="black"/>
<line x1="26" y1="140" x2="26" y2="195" stroke="#4D5358" stroke-width="4"/>
</g>
<rect x="568.5" y="140.5" width="510" height="382" fill="white" fill-opacity="0.01" style="mix-blend-mode:multiply"/>
<rect x="568.5" y="140.5" width="510" height="382" stroke="#0F62FE"/>
<rect x="569" y="141" width="509" height="381" fill="white"/>
<rect x="569" y="141" width="509" height="381" fill="#EDF5FF"/>
<g clip-path="url(#clip3_2_1397)">
<path d="M629.18 169H624.742V167.516H626.03V160.712H624.742V159.228H629.18V160.712H627.878V167.516H629.18V169ZM631.228 169V159.228H635.75C637.36 159.228 638.34 160.222 638.34 161.734C638.34 163.218 637.486 163.778 636.59 163.834V163.918C637.444 163.932 638.704 164.534 638.704 166.2C638.704 167.768 637.626 169 636.184 169H631.228ZM633.076 164.814V167.432H635.652C636.352 167.432 636.772 167.054 636.772 166.368V165.892C636.772 165.206 636.352 164.814 635.652 164.814H633.076ZM633.076 160.796V163.302H635.358C636.03 163.302 636.422 162.91 636.422 162.266V161.832C636.422 161.174 636.03 160.796 635.358 160.796H633.076ZM640.671 169V159.228H642.757L645.263 164.002H645.319L647.797 159.228H649.799V169H648.049V161.986H647.993L647.237 163.54L645.235 167.236L643.233 163.54L642.477 161.986H642.421V169H640.671ZM659.523 169.168C656.947 169.168 655.309 167.474 655.309 164.184C655.309 160.894 656.947 159.06 659.523 159.06C661.273 159.06 662.407 159.802 663.093 161.314L661.511 162.154C661.231 161.286 660.615 160.698 659.523 160.698C658.151 160.698 657.269 161.692 657.269 163.358V164.898C657.269 166.578 658.151 167.53 659.523 167.53C660.629 167.53 661.315 166.858 661.637 165.976L663.135 166.858C662.435 168.314 661.273 169.168 659.523 169.168ZM667.518 169H666.552C665.334 169 664.76 168.356 664.76 167.236V158.64H666.552V167.572H667.518V169ZM671.933 169.168C669.847 169.168 668.545 167.684 668.545 165.332C668.545 162.994 669.847 161.524 671.933 161.524C674.033 161.524 675.335 162.994 675.335 165.332C675.335 167.684 674.033 169.168 671.933 169.168ZM671.933 167.726C672.871 167.726 673.459 167.124 673.459 166.018V164.66C673.459 163.568 672.871 162.966 671.933 162.966C671.009 162.966 670.421 163.568 670.421 164.66V166.018C670.421 167.124 671.009 167.726 671.933 167.726ZM681.452 169V167.782H681.382C681.13 168.51 680.542 169.168 679.338 169.168C677.84 169.168 677 168.132 677 166.312V161.692H678.792V166.13C678.792 167.138 679.17 167.684 680.024 167.684C680.738 167.684 681.452 167.306 681.452 166.522V161.692H683.244V169H681.452ZM690.01 169V167.782H689.94C689.674 168.608 688.89 169.168 687.924 169.168C686.09 169.168 685.068 167.782 685.068 165.332C685.068 162.896 686.09 161.524 687.924 161.524C688.89 161.524 689.688 162.056 689.94 162.896H690.01V158.64H691.802V169H690.01ZM688.498 167.684C689.352 167.684 690.01 167.25 690.01 166.494V164.17C690.01 163.456 689.352 162.994 688.498 162.994C687.574 162.994 686.944 163.68 686.944 164.716V165.976C686.944 167.012 687.574 167.684 688.498 167.684Z" fill="black"/>
<g clip-path="url(#clip4_2_1397)">
<rect width="24" height="24" transform="translate(584 152)" fill="white" fill-opacity="0.01" style="mix-blend-mode:multiply"/>
<path d="M602.436 162.238C601.69 160.841 600.511 159.724 599.076 159.056C597.64 158.388 596.027 158.205 594.478 158.534C592.93 158.863 591.53 159.687 590.491 160.881C589.451 162.075 588.828 163.575 588.715 165.154C587.427 165.293 586.241 165.919 585.402 166.906C584.562 167.892 584.132 169.162 584.201 170.456C584.269 171.749 584.831 172.967 585.771 173.859C586.71 174.751 587.955 175.249 589.25 175.25H601.25C602.888 175.251 604.467 174.64 605.676 173.536C606.886 172.432 607.639 170.916 607.787 169.285C607.936 167.655 607.469 166.027 606.479 164.723C605.489 163.419 604.047 162.532 602.436 162.238ZM601.25 174.125H589.25C588.253 174.127 587.291 173.75 586.562 173.069C585.832 172.388 585.389 171.455 585.322 170.46C585.255 169.464 585.57 168.481 586.202 167.709C586.834 166.936 587.737 166.434 588.726 166.303C588.805 167.296 589.087 168.261 589.554 169.141C589.587 169.208 589.634 169.268 589.692 169.316C589.749 169.365 589.815 169.402 589.887 169.424C589.958 169.447 590.034 169.455 590.108 169.448C590.183 169.441 590.256 169.419 590.322 169.383C590.388 169.348 590.447 169.3 590.494 169.241C590.541 169.183 590.576 169.115 590.597 169.043C590.617 168.971 590.623 168.895 590.615 168.821C590.606 168.746 590.582 168.674 590.545 168.609C589.801 167.219 589.616 165.598 590.027 164.076C590.439 162.555 591.415 161.247 592.758 160.421C594.1 159.595 595.707 159.312 597.251 159.631C598.795 159.949 600.159 160.845 601.064 162.135C600.166 162.16 599.281 162.369 598.467 162.75C597.652 163.13 596.924 163.674 596.328 164.347C596.277 164.403 596.238 164.467 596.213 164.538C596.187 164.608 596.176 164.683 596.18 164.758C596.184 164.832 596.203 164.906 596.235 164.973C596.268 165.041 596.314 165.101 596.37 165.15C596.426 165.2 596.491 165.238 596.562 165.262C596.633 165.286 596.708 165.295 596.783 165.29C596.858 165.284 596.931 165.264 596.997 165.23C597.064 165.196 597.123 165.149 597.172 165.092C597.772 164.41 598.535 163.89 599.388 163.579C600.242 163.268 601.16 163.175 602.059 163.31C602.957 163.446 603.808 163.804 604.532 164.352C605.257 164.9 605.832 165.622 606.206 166.45C606.58 167.278 606.74 168.187 606.673 169.093C606.605 169.999 606.311 170.874 605.818 171.637C605.326 172.4 604.649 173.028 603.851 173.463C603.053 173.897 602.159 174.125 601.25 174.125Z" fill="black"/>
<path d="M607.924 159.691C607.887 159.626 607.837 159.57 607.778 159.524C607.719 159.479 607.651 159.445 607.579 159.426C607.507 159.407 607.431 159.402 607.357 159.411C607.283 159.421 607.212 159.446 607.147 159.483L604.882 160.791C604.815 160.827 604.757 160.876 604.71 160.936C604.662 160.995 604.628 161.063 604.607 161.136C604.587 161.209 604.581 161.286 604.59 161.361C604.6 161.436 604.624 161.509 604.662 161.574C604.7 161.64 604.751 161.697 604.811 161.743C604.871 161.789 604.94 161.822 605.014 161.841C605.087 161.86 605.164 161.864 605.239 161.853C605.314 161.842 605.386 161.816 605.45 161.776L607.715 160.468C607.846 160.393 607.942 160.269 607.981 160.123C608.02 159.977 608 159.822 607.924 159.691Z" fill="black"/>
<path d="M601.008 157.903C601.072 157.94 601.144 157.964 601.218 157.974C601.292 157.984 601.367 157.979 601.44 157.96C601.512 157.94 601.579 157.907 601.639 157.861C601.698 157.816 601.748 157.759 601.785 157.694L603.093 155.429C603.167 155.299 603.187 155.144 603.147 154.999C603.108 154.854 603.013 154.731 602.883 154.656C602.753 154.581 602.598 154.56 602.453 154.598C602.308 154.637 602.183 154.731 602.107 154.86L600.8 157.125C600.724 157.256 600.704 157.411 600.743 157.557C600.782 157.703 600.877 157.827 601.008 157.903Z" fill="black"/>
<path d="M596 156.561C596.151 156.561 596.296 156.501 596.403 156.394C596.51 156.287 596.57 156.143 596.57 155.992V153.376C596.57 153.301 596.556 153.226 596.528 153.156C596.5 153.086 596.458 153.023 596.405 152.969C596.352 152.916 596.289 152.873 596.22 152.844C596.15 152.815 596.076 152.8 596.001 152.8C595.925 152.8 595.851 152.815 595.781 152.844C595.712 152.873 595.649 152.916 595.596 152.969C595.543 153.023 595.501 153.086 595.473 153.156C595.445 153.226 595.431 153.301 595.431 153.376V155.992C595.431 156.143 595.491 156.287 595.598 156.394C595.705 156.501 595.85 156.561 596 156.561Z" fill="black"/>
<path d="M590.216 157.694C590.292 157.824 590.416 157.918 590.561 157.956C590.707 157.994 590.861 157.974 590.991 157.899C591.121 157.824 591.216 157.7 591.256 157.555C591.295 157.41 591.276 157.256 591.201 157.125L589.894 154.86C589.857 154.795 589.807 154.737 589.748 154.691C589.688 154.645 589.62 154.612 589.548 154.592C589.476 154.572 589.4 154.567 589.325 154.577C589.251 154.586 589.179 154.611 589.114 154.648C589.049 154.686 588.992 154.736 588.947 154.795C588.901 154.855 588.868 154.923 588.849 154.996C588.829 155.068 588.825 155.144 588.835 155.218C588.845 155.293 588.87 155.364 588.908 155.429L590.216 157.694Z" fill="black"/>
<path d="M587.119 160.791L584.854 159.483C584.79 159.445 584.718 159.42 584.644 159.41C584.569 159.4 584.494 159.404 584.421 159.423C584.348 159.442 584.28 159.476 584.221 159.521C584.161 159.567 584.111 159.624 584.073 159.689C584.036 159.754 584.011 159.826 584.002 159.9C583.992 159.975 583.997 160.05 584.017 160.123C584.037 160.195 584.071 160.263 584.117 160.322C584.163 160.382 584.22 160.431 584.285 160.468L586.55 161.776C586.615 161.814 586.687 161.839 586.761 161.849C586.836 161.86 586.911 161.855 586.984 161.836C587.056 161.817 587.125 161.783 587.184 161.738C587.244 161.692 587.294 161.635 587.331 161.57C587.369 161.505 587.393 161.433 587.403 161.359C587.413 161.284 587.407 161.209 587.388 161.136C587.368 161.064 587.334 160.996 587.288 160.937C587.242 160.877 587.185 160.828 587.119 160.791Z" fill="black"/>
</g>
<line x1="570" y1="140" x2="570" y2="188" stroke="#0F62FE" stroke-width="4"/>
</g>
<rect x="597.5" y="209.5" width="191" height="287" fill="white" fill-opacity="0.01" style="mix-blend-mode:multiply"/>
<rect x="597.5" y="209.5" width="191" height="287" stroke="#0F62FE"/>
<rect x="598" y="210" width="190" height="286" fill="white"/>
<g clip-path="url(#clip5_2_1397)">
<path d="M657.942 238.168C655.366 238.168 653.728 236.474 653.728 233.184C653.728 229.894 655.366 228.06 657.942 228.06C659.692 228.06 660.826 228.802 661.512 230.314L659.93 231.154C659.65 230.286 659.034 229.698 657.942 229.698C656.57 229.698 655.688 230.692 655.688 232.358V233.898C655.688 235.578 656.57 236.53 657.942 236.53C659.048 236.53 659.734 235.858 660.056 234.976L661.554 235.858C660.854 237.314 659.692 238.168 657.942 238.168ZM665.936 238H664.97C663.752 238 663.178 237.356 663.178 236.236V227.64H664.97V236.572H665.936V238ZM670.352 238.168C668.266 238.168 666.964 236.684 666.964 234.332C666.964 231.994 668.266 230.524 670.352 230.524C672.452 230.524 673.754 231.994 673.754 234.332C673.754 236.684 672.452 238.168 670.352 238.168ZM670.352 236.726C671.29 236.726 671.878 236.124 671.878 235.018V233.66C671.878 232.568 671.29 231.966 670.352 231.966C669.428 231.966 668.84 232.568 668.84 233.66V235.018C668.84 236.124 669.428 236.726 670.352 236.726ZM679.87 238V236.782H679.8C679.548 237.51 678.96 238.168 677.756 238.168C676.258 238.168 675.418 237.132 675.418 235.312V230.692H677.21V235.13C677.21 236.138 677.588 236.684 678.442 236.684C679.156 236.684 679.87 236.306 679.87 235.522V230.692H681.662V238H679.87ZM688.429 238V236.782H688.359C688.093 237.608 687.309 238.168 686.343 238.168C684.509 238.168 683.487 236.782 683.487 234.332C683.487 231.896 684.509 230.524 686.343 230.524C687.309 230.524 688.107 231.056 688.359 231.896H688.429V227.64H690.221V238H688.429ZM686.917 236.684C687.771 236.684 688.429 236.25 688.429 235.494V233.17C688.429 232.456 687.771 231.994 686.917 231.994C685.993 231.994 685.363 232.68 685.363 233.716V234.976C685.363 236.012 685.993 236.684 686.917 236.684ZM703.994 238H702.076L701.292 235.508H697.82L697.05 238H695.174L698.45 228.228H700.746L703.994 238ZM700.844 233.926L699.584 229.908H699.514L698.268 233.926H700.844ZM707.442 238H705.594V228.228H709.99C711.796 228.228 712.888 229.446 712.888 231.252C712.888 233.072 711.796 234.276 709.99 234.276H707.442V238ZM707.442 229.838V232.68H709.822C710.536 232.68 710.97 232.288 710.97 231.574V230.93C710.97 230.216 710.536 229.838 709.822 229.838H707.442ZM718.755 238H714.317V236.516H715.605V229.712H714.317V228.228H718.755V229.712H717.453V236.516H718.755V238ZM723.03 238.168C721.644 238.168 720.734 237.664 720.006 236.824L721.098 235.76C721.63 236.376 722.274 236.754 723.1 236.754C723.954 236.754 724.318 236.432 724.318 235.914C724.318 235.494 724.066 235.228 723.422 235.144L722.694 235.046C721.126 234.85 720.258 234.164 720.258 232.834C720.258 231.42 721.364 230.524 723.03 230.524C724.458 230.524 725.186 230.944 725.886 231.672L724.836 232.722C724.416 232.274 723.8 231.938 723.086 231.938C722.316 231.938 721.98 232.246 721.98 232.694C721.98 233.184 722.246 233.408 722.932 233.52L723.674 233.618C725.27 233.842 726.04 234.556 726.04 235.774C726.04 237.188 724.85 238.168 723.03 238.168Z" fill="black"/>
<rect width="24" height="24" transform="translate(613 221)" fill="white" fill-opacity="0.01" style="mix-blend-mode:multiply"/>
<path d="M621.25 242H614.5V243.5H621.25V242Z" fill="black"/>
<path d="M635.5 242H628.75V243.5H635.5V242Z" fill="black"/>
<path d="M625.75 240.625V234.374L627.69 236.31L628.75 235.25L625 231.5L621.25 235.25L622.31 236.311L624.25 234.374V240.625L622.31 238.688L621.25 239.75L625 243.5L628.75 239.75L627.69 238.689L625.75 240.625Z" fill="black"/>
<path d="M630.25 233H628.75V231.5H630.25C630.847 231.5 631.419 231.263 631.841 230.841C632.263 230.419 632.5 229.847 632.5 229.25C632.5 228.653 632.263 228.081 631.841 227.659C631.419 227.237 630.847 227 630.25 227C630.18 227.011 630.135 227.016 630.089 227.02L629.486 227.063L629.316 226.482C629.06 225.607 628.543 224.829 627.834 224.254C627.126 223.679 626.259 223.334 625.349 223.263C624.439 223.193 623.529 223.401 622.741 223.86C621.952 224.319 621.322 225.007 620.934 225.833L620.722 226.283L620.09 226.249C619.393 226.253 618.727 226.535 618.238 227.03C617.749 227.526 617.477 228.196 617.482 228.892C617.486 229.588 617.768 230.254 618.263 230.743C618.759 231.232 619.429 231.505 620.125 231.5H621.25V233H620.125C619.059 233.001 618.033 232.588 617.264 231.849C616.495 231.11 616.043 230.102 616.001 229.036C615.959 227.971 616.332 226.93 617.041 226.133C617.749 225.337 618.739 224.845 619.802 224.762C620.362 223.785 621.186 222.986 622.18 222.456C623.173 221.926 624.296 221.686 625.419 221.764C626.542 221.843 627.621 222.236 628.531 222.899C629.441 223.562 630.146 224.468 630.565 225.513C631.529 225.594 632.425 226.044 633.065 226.77C633.704 227.496 634.039 228.441 633.998 229.408C633.958 230.374 633.545 231.288 632.846 231.957C632.148 232.627 631.218 233 630.25 233Z" fill="black"/>
<line x1="599" y1="209" x2="599" y2="257" stroke="#0F62FE" stroke-width="4"/>
</g>
<rect x="844.5" y="208.5" width="207" height="287" fill="white" fill-opacity="0.01" style="mix-blend-mode:multiply"/>
<rect x="844.5" y="208.5" width="207" height="287" stroke="#0F62FE"/>
<rect x="845" y="209" width="206" height="286" fill="white"/>
<g clip-path="url(#clip6_2_1397)">
<path d="M902.996 233.234V237H901.148V227.228H905.558C907.336 227.228 908.442 228.404 908.442 230.252C908.442 231.596 907.826 232.618 906.622 233.024L908.624 237H906.566L904.746 233.234H902.996ZM902.996 231.68H905.376C906.09 231.68 906.524 231.288 906.524 230.574V229.93C906.524 229.216 906.09 228.838 905.376 228.838H902.996V231.68ZM913.242 237.168C911.086 237.168 909.798 235.67 909.798 233.332C909.798 231.022 911.044 229.524 913.186 229.524C915.468 229.524 916.518 231.204 916.518 233.206V233.794H911.66V233.976C911.66 235.026 912.262 235.74 913.438 235.74C914.32 235.74 914.852 235.32 915.3 234.746L916.266 235.824C915.664 236.65 914.6 237.168 913.242 237.168ZM913.214 230.868C912.276 230.868 911.66 231.568 911.66 232.576V232.688H914.656V232.562C914.656 231.554 914.138 230.868 913.214 230.868ZM920.648 237.168C919.262 237.168 918.352 236.664 917.624 235.824L918.716 234.76C919.248 235.376 919.892 235.754 920.718 235.754C921.572 235.754 921.936 235.432 921.936 234.914C921.936 234.494 921.684 234.228 921.04 234.144L920.312 234.046C918.744 233.85 917.876 233.164 917.876 231.834C917.876 230.42 918.982 229.524 920.648 229.524C922.076 229.524 922.804 229.944 923.504 230.672L922.454 231.722C922.034 231.274 921.418 230.938 920.704 230.938C919.934 230.938 919.598 231.246 919.598 231.694C919.598 232.184 919.864 232.408 920.55 232.52L921.292 232.618C922.888 232.842 923.658 233.556 923.658 234.774C923.658 236.188 922.468 237.168 920.648 237.168ZM928.299 237.168C926.213 237.168 924.911 235.684 924.911 233.332C924.911 230.994 926.213 229.524 928.299 229.524C930.399 229.524 931.701 230.994 931.701 233.332C931.701 235.684 930.399 237.168 928.299 237.168ZM928.299 235.726C929.237 235.726 929.825 235.124 929.825 234.018V232.66C929.825 231.568 929.237 230.966 928.299 230.966C927.375 230.966 926.787 231.568 926.787 232.66V234.018C926.787 235.124 927.375 235.726 928.299 235.726ZM937.817 237V235.782H937.747C937.495 236.51 936.907 237.168 935.703 237.168C934.205 237.168 933.365 236.132 933.365 234.312V229.692H935.157V234.13C935.157 235.138 935.535 235.684 936.389 235.684C937.103 235.684 937.817 235.306 937.817 234.522V229.692H939.609V237H937.817ZM943.632 237H941.84V229.692H943.632V231.204H943.702C943.884 230.434 944.472 229.692 945.634 229.692H946.026V231.386H945.466C944.262 231.386 943.632 231.722 943.632 232.52V237ZM950.312 237.168C948.156 237.168 946.938 235.684 946.938 233.332C946.938 230.994 948.156 229.524 950.312 229.524C951.782 229.524 952.748 230.224 953.182 231.372L951.712 232.03C951.544 231.414 951.082 230.966 950.312 230.966C949.318 230.966 948.814 231.666 948.814 232.688V234.018C948.814 235.04 949.318 235.726 950.312 235.726C951.166 235.726 951.586 235.236 951.852 234.578L953.224 235.236C952.748 236.524 951.726 237.168 950.312 237.168ZM957.651 237.168C955.495 237.168 954.207 235.67 954.207 233.332C954.207 231.022 955.453 229.524 957.595 229.524C959.877 229.524 960.927 231.204 960.927 233.206V233.794H956.069V233.976C956.069 235.026 956.671 235.74 957.847 235.74C958.729 235.74 959.261 235.32 959.709 234.746L960.675 235.824C960.073 236.65 959.009 237.168 957.651 237.168ZM957.623 230.868C956.685 230.868 956.069 231.568 956.069 232.576V232.688H959.065V232.562C959.065 231.554 958.547 230.868 957.623 230.868ZM965.058 237.168C963.672 237.168 962.762 236.664 962.034 235.824L963.126 234.76C963.658 235.376 964.302 235.754 965.128 235.754C965.982 235.754 966.346 235.432 966.346 234.914C966.346 234.494 966.094 234.228 965.45 234.144L964.722 234.046C963.154 233.85 962.286 233.164 962.286 231.834C962.286 230.42 963.392 229.524 965.058 229.524C966.486 229.524 967.214 229.944 967.914 230.672L966.864 231.722C966.444 231.274 965.828 230.938 965.114 230.938C964.344 230.938 964.008 231.246 964.008 231.694C964.008 232.184 964.274 232.408 964.96 232.52L965.702 232.618C967.298 232.842 968.068 233.556 968.068 234.774C968.068 236.188 966.878 237.168 965.058 237.168Z" fill="black"/>
<rect width="24" height="24" transform="translate(860 220)" fill="white" fill-opacity="0.01" style="mix-blend-mode:multiply"/>
<path d="M878 235.75C877.625 235.75 877.25 235.6 876.95 235.3L874.7 233.05C874.4 232.75 874.25 232.375 874.25 232C874.25 231.625 874.4 231.25 874.7 230.95L876.95 228.7C877.25 228.4 877.625 228.25 878 228.25C878.375 228.25 878.75 228.4 879.05 228.7L881.3 230.95C881.6 231.25 881.75 231.625 881.75 232C881.75 232.375 881.6 232.75 881.3 233.05L879.05 235.3C878.75 235.6 878.375 235.75 878 235.75ZM878 229.75L875.75 232L878 234.25L880.25 232L878 229.75Z" fill="black"/>
<path d="M872 229.75C871.625 229.75 871.25 229.6 870.95 229.3L868.7 227.05C868.4 226.75 868.25 226.375 868.25 226C868.25 225.625 868.4 225.25 868.7 224.95L870.95 222.7C871.25 222.4 871.625 222.25 872 222.25C872.375 222.25 872.75 222.4 873.05 222.7L875.3 224.95C875.6 225.25 875.75 225.625 875.75 226C875.75 226.375 875.6 226.75 875.3 227.05L873.05 229.3C872.75 229.6 872.375 229.75 872 229.75ZM872 223.75L869.75 226L872 228.25L874.25 226L872 223.75Z" fill="black"/>
<path d="M872 241.75C871.625 241.75 871.25 241.6 870.95 241.3L868.7 239.05C868.4 238.75 868.25 238.375 868.25 238C868.25 237.625 868.4 237.25 868.7 236.95L870.95 234.7C871.25 234.4 871.625 234.25 872 234.25C872.375 234.25 872.75 234.4 873.05 234.7L875.3 236.95C875.6 237.25 875.75 237.625 875.75 238C875.75 238.375 875.6 238.75 875.3 239.05L873.05 241.3C872.75 241.6 872.375 241.75 872 241.75ZM872 235.75L869.75 238L872 240.25L874.25 238L872 235.75Z" fill="black"/>
<path d="M866 235.75C865.625 235.75 865.25 235.6 864.95 235.3L862.7 233.05C862.4 232.75 862.25 232.375 862.25 232C862.25 231.625 862.4 231.25 862.7 230.95L864.95 228.7C865.25 228.4 865.625 228.25 866 228.25C866.375 228.25 866.75 228.4 867.05 228.7L869.3 230.95C869.6 231.25 869.75 231.625 869.75 232C869.75 232.375 869.6 232.75 869.3 233.05L867.05 235.3C866.75 235.6 866.375 235.75 866 235.75ZM866 229.75L863.75 232L866 234.25L868.25 232L866 229.75Z" fill="black"/>
<line x1="846" y1="208" x2="846" y2="256" stroke="#0F62FE" stroke-width="4"/>
</g>
<rect width="110" height="105" transform="translate(50 289)" fill="white" fill-opacity="0.01" style="mix-blend-mode:multiply"/>
<rect width="48" height="48" transform="translate(81 289)" fill="#8A3FFC"/>
<rect width="110" height="106" transform="translate(50 382)" fill="white" fill-opacity="0.01" style="mix-blend-mode:multiply"/>
<rect width="48" height="48" transform="translate(81 382)" fill="#8A3FFC"/>
<rect width="110" height="105" transform="translate(142 289)" fill="white" fill-opacity="0.01" style="mix-blend-mode:multiply"/>
<rect width="48" height="48" transform="translate(173 289)" fill="#8A3FFC"/>
<rect width="55" height="55" transform="translate(376 289)" fill="#009D9A"/>
<rect width="55" height="55" transform="translate(376 382)" fill="#009D9A"/>
<rect width="110" height="106" transform="translate(142 382)" fill="white" fill-opacity="0.01" style="mix-blend-mode:multiply"/>
<rect width="48" height="48" transform="translate(173 382)" fill="#8A3FFC"/>
<path d="M169.354 310.354C169.549 310.158 169.549 309.842 169.354 309.646L166.172 306.464C165.976 306.269 165.66 306.269 165.464 306.464C165.269 306.66 165.269 306.976 165.464 307.172L168.293 310L165.464 312.828C165.269 313.024 165.269 313.34 165.464 313.536C165.66 313.731 165.976 313.731 166.172 313.536L169.354 310.354ZM129 310.5L169 310.5L169 309.5L129 309.5L129 310.5Z" fill="#878D96"/>
<path d="M146.43 328.715L146.93 328.715L146.93 328.215L146.43 328.215L146.43 328.715ZM146.429 409.857L145.929 409.857L145.929 410.357L146.429 410.357L146.429 409.857ZM171.354 410.211C171.549 410.016 171.549 409.699 171.354 409.504L168.172 406.322C167.977 406.127 167.66 406.127 167.465 406.322C167.269 406.517 167.269 406.834 167.465 407.029L170.293 409.857L167.465 412.686C167.269 412.881 167.269 413.198 167.465 413.393C167.66 413.588 167.977 413.588 168.172 413.393L171.354 410.211ZM129.501 329.215L146.43 329.215L146.43 328.215L129.501 328.215L129.501 329.215ZM145.93 328.715L145.929 409.857L146.929 409.857L146.93 328.715L145.93 328.715ZM146.429 410.357L171 410.357L171 409.357L146.429 409.357L146.429 410.357Z" fill="#878D96"/>
<path d="M104.646 378.354C104.842 378.549 105.158 378.549 105.354 378.354L108.536 375.172C108.731 374.976 108.731 374.66 108.536 374.464C108.34 374.269 108.024 374.269 107.828 374.464L105 377.293L102.172 374.464C101.976 374.269 101.66 374.269 101.464 374.464C101.269 374.66 101.269 374.976 101.464 375.172L104.646 378.354ZM104.5 337L104.5 378L105.5 378L105.5 337L104.5 337Z" fill="#878D96"/>
<rect width="56" height="9" transform="translate(257 232)" fill="white" fill-opacity="0.01" style="mix-blend-mode:multiply"/>
<rect width="49" height="0" transform="translate(257 236.5)" fill="white" fill-opacity="0.01" style="mix-blend-mode:multiply"/>
<path d="M257 236.5H306" stroke="black"/>
<rect width="8" height="8" transform="translate(305 232.5)" fill="white" fill-opacity="0.01" style="mix-blend-mode:multiply"/>
<path d="M305 232.5L313 236.5L305 240.5V232.5Z" fill="black"/>
<rect width="93" height="9" transform="translate(504 232)" fill="white" fill-opacity="0.01" style="mix-blend-mode:multiply"/>
<rect width="86" height="0" transform="translate(504 236.5)" fill="white" fill-opacity="0.01" style="mix-blend-mode:multiply"/>
<path d="M504 236.5H590" stroke="black"/>
<rect width="8" height="8" transform="translate(589 232.5)" fill="white" fill-opacity="0.01" style="mix-blend-mode:multiply"/>
<path d="M589 232.5L597 236.5L589 240.5V232.5Z" fill="black"/>
<rect width="55" height="9" transform="translate(789 232)" fill="white" fill-opacity="0.01" style="mix-blend-mode:multiply"/>
<rect width="48" height="0" transform="translate(789 236.5)" fill="white" fill-opacity="0.01" style="mix-blend-mode:multiply"/>
<path d="M789 236.5H837" stroke="black"/>
<rect width="8" height="8" transform="translate(836 232.5)" fill="white" fill-opacity="0.01" style="mix-blend-mode:multiply"/>
<path d="M836 232.5L844 236.5L836 240.5V232.5Z" fill="black"/>
<rect width="55" height="55" transform="translate(661 289)" fill="#0F62FE"/>
<rect width="24" height="24" transform="translate(677 304)" fill="white" fill-opacity="0.01" style="mix-blend-mode:multiply"/>
<path d="M696.5 320.5C695.97 320.503 695.451 320.65 695 320.927L692.683 318.602C693.222 317.842 693.511 316.932 693.511 316C693.511 315.068 693.222 314.158 692.683 313.398L695 311.073C695.451 311.35 695.97 311.497 696.5 311.5C697.093 311.5 697.673 311.324 698.167 310.994C698.66 310.665 699.045 310.196 699.272 309.648C699.499 309.1 699.558 308.497 699.442 307.915C699.327 307.333 699.041 306.798 698.621 306.379C698.202 305.959 697.667 305.673 697.085 305.558C696.503 305.442 695.9 305.501 695.352 305.728C694.804 305.955 694.335 306.34 694.006 306.833C693.676 307.327 693.5 307.907 693.5 308.5C693.503 309.03 693.65 309.549 693.927 310L691.602 312.318C690.842 311.778 689.932 311.489 689 311.489C688.068 311.489 687.158 311.778 686.398 312.318L684.073 310C684.35 309.549 684.497 309.03 684.5 308.5C684.5 307.907 684.324 307.327 683.994 306.833C683.665 306.34 683.196 305.955 682.648 305.728C682.1 305.501 681.497 305.442 680.915 305.558C680.333 305.673 679.798 305.959 679.379 306.379C678.959 306.798 678.673 307.333 678.558 307.915C678.442 308.497 678.501 309.1 678.728 309.648C678.955 310.196 679.34 310.665 679.833 310.994C680.327 311.324 680.907 311.5 681.5 311.5C682.03 311.497 682.549 311.35 683 311.073L685.318 313.398C684.778 314.158 684.489 315.068 684.489 316C684.489 316.932 684.778 317.842 685.318 318.602L683 320.927C682.549 320.65 682.03 320.503 681.5 320.5C680.907 320.5 680.327 320.676 679.833 321.006C679.34 321.335 678.955 321.804 678.728 322.352C678.501 322.9 678.442 323.503 678.558 324.085C678.673 324.667 678.959 325.202 679.379 325.621C679.798 326.041 680.333 326.327 680.915 326.442C681.497 326.558 682.1 326.499 682.648 326.272C683.196 326.045 683.665 325.66 683.994 325.167C684.324 324.673 684.5 324.093 684.5 323.5C684.497 322.97 684.35 322.451 684.073 322L686.398 319.683C687.158 320.222 688.068 320.511 689 320.511C689.932 320.511 690.842 320.222 691.602 319.683L693.927 322C693.65 322.451 693.503 322.97 693.5 323.5C693.5 324.093 693.676 324.673 694.006 325.167C694.335 325.66 694.804 326.045 695.352 326.272C695.9 326.499 696.503 326.558 697.085 326.442C697.667 326.327 698.202 326.041 698.621 325.621C699.041 325.202 699.327 324.667 699.442 324.085C699.558 323.503 699.499 322.9 699.272 322.352C699.045 321.804 698.66 321.335 698.167 321.006C697.673 320.676 697.093 320.5 696.5 320.5ZM696.5 307C696.797 307 697.087 307.088 697.333 307.253C697.58 307.418 697.772 307.652 697.886 307.926C697.999 308.2 698.029 308.502 697.971 308.793C697.913 309.084 697.77 309.351 697.561 309.561C697.351 309.77 697.084 309.913 696.793 309.971C696.502 310.029 696.2 309.999 695.926 309.886C695.652 309.772 695.418 309.58 695.253 309.333C695.088 309.087 695 308.797 695 308.5C695 308.102 695.158 307.721 695.439 307.439C695.721 307.158 696.102 307 696.5 307V307ZM680 308.5C680 308.203 680.088 307.913 680.253 307.667C680.418 307.42 680.652 307.228 680.926 307.114C681.2 307.001 681.502 306.971 681.793 307.029C682.084 307.087 682.351 307.23 682.561 307.439C682.77 307.649 682.913 307.916 682.971 308.207C683.029 308.498 682.999 308.8 682.886 309.074C682.772 309.348 682.58 309.582 682.333 309.747C682.087 309.912 681.797 310 681.5 310C681.102 310 680.721 309.842 680.439 309.561C680.158 309.279 680 308.898 680 308.5V308.5ZM681.5 325C681.203 325 680.913 324.912 680.667 324.747C680.42 324.582 680.228 324.348 680.114 324.074C680.001 323.8 679.971 323.498 680.029 323.207C680.087 322.916 680.23 322.649 680.439 322.439C680.649 322.23 680.916 322.087 681.207 322.029C681.498 321.971 681.8 322.001 682.074 322.114C682.348 322.228 682.582 322.42 682.747 322.667C682.912 322.913 683 323.203 683 323.5C683 323.898 682.842 324.279 682.561 324.561C682.279 324.842 681.898 325 681.5 325ZM689 319C688.407 319 687.827 318.824 687.333 318.494C686.84 318.165 686.455 317.696 686.228 317.148C686.001 316.6 685.942 315.997 686.058 315.415C686.173 314.833 686.459 314.298 686.879 313.879C687.298 313.459 687.833 313.173 688.415 313.058C688.997 312.942 689.6 313.001 690.148 313.228C690.696 313.455 691.165 313.84 691.494 314.333C691.824 314.827 692 315.407 692 316C692 316.796 691.684 317.559 691.121 318.121C690.559 318.684 689.796 319 689 319ZM696.5 325C696.203 325 695.913 324.912 695.667 324.747C695.42 324.582 695.228 324.348 695.114 324.074C695.001 323.8 694.971 323.498 695.029 323.207C695.087 322.916 695.23 322.649 695.439 322.439C695.649 322.23 695.916 322.087 696.207 322.029C696.498 321.971 696.8 322.001 697.074 322.114C697.348 322.228 697.582 322.42 697.747 322.667C697.912 322.913 698 323.203 698 323.5C698 323.898 697.842 324.279 697.561 324.561C697.279 324.842 696.898 325 696.5 325Z" fill="white"/>
<rect width="55" height="55" transform="translate(661 382)" fill="#0F62FE"/>
<rect width="24" height="24" transform="translate(676 397)" fill="white" fill-opacity="0.01" style="mix-blend-mode:multiply"/>
<path d="M695.5 413.5C694.97 413.503 694.451 413.65 694 413.927L691.683 411.602C692.222 410.842 692.511 409.932 692.511 409C692.511 408.068 692.222 407.158 691.683 406.398L694 404.073C694.451 404.35 694.97 404.497 695.5 404.5C696.093 404.5 696.673 404.324 697.167 403.994C697.66 403.665 698.045 403.196 698.272 402.648C698.499 402.1 698.558 401.497 698.442 400.915C698.327 400.333 698.041 399.798 697.621 399.379C697.202 398.959 696.667 398.673 696.085 398.558C695.503 398.442 694.9 398.501 694.352 398.728C693.804 398.955 693.335 399.34 693.006 399.833C692.676 400.327 692.5 400.907 692.5 401.5C692.503 402.03 692.65 402.549 692.927 403L690.602 405.318C689.842 404.778 688.932 404.489 688 404.489C687.068 404.489 686.158 404.778 685.398 405.318L683.073 403C683.35 402.549 683.497 402.03 683.5 401.5C683.5 400.907 683.324 400.327 682.994 399.833C682.665 399.34 682.196 398.955 681.648 398.728C681.1 398.501 680.497 398.442 679.915 398.558C679.333 398.673 678.798 398.959 678.379 399.379C677.959 399.798 677.673 400.333 677.558 400.915C677.442 401.497 677.501 402.1 677.728 402.648C677.955 403.196 678.34 403.665 678.833 403.994C679.327 404.324 679.907 404.5 680.5 404.5C681.03 404.497 681.549 404.35 682 404.073L684.318 406.398C683.778 407.158 683.489 408.068 683.489 409C683.489 409.932 683.778 410.842 684.318 411.602L682 413.927C681.549 413.65 681.03 413.503 680.5 413.5C679.907 413.5 679.327 413.676 678.833 414.006C678.34 414.335 677.955 414.804 677.728 415.352C677.501 415.9 677.442 416.503 677.558 417.085C677.673 417.667 677.959 418.202 678.379 418.621C678.798 419.041 679.333 419.327 679.915 419.442C680.497 419.558 681.1 419.499 681.648 419.272C682.196 419.045 682.665 418.66 682.994 418.167C683.324 417.673 683.5 417.093 683.5 416.5C683.497 415.97 683.35 415.451 683.073 415L685.398 412.683C686.158 413.222 687.068 413.511 688 413.511C688.932 413.511 689.842 413.222 690.602 412.683L692.927 415C692.65 415.451 692.503 415.97 692.5 416.5C692.5 417.093 692.676 417.673 693.006 418.167C693.335 418.66 693.804 419.045 694.352 419.272C694.9 419.499 695.503 419.558 696.085 419.442C696.667 419.327 697.202 419.041 697.621 418.621C698.041 418.202 698.327 417.667 698.442 417.085C698.558 416.503 698.499 415.9 698.272 415.352C698.045 414.804 697.66 414.335 697.167 414.006C696.673 413.676 696.093 413.5 695.5 413.5ZM695.5 400C695.797 400 696.087 400.088 696.333 400.253C696.58 400.418 696.772 400.652 696.886 400.926C696.999 401.2 697.029 401.502 696.971 401.793C696.913 402.084 696.77 402.351 696.561 402.561C696.351 402.77 696.084 402.913 695.793 402.971C695.502 403.029 695.2 402.999 694.926 402.886C694.652 402.772 694.418 402.58 694.253 402.333C694.088 402.087 694 401.797 694 401.5C694 401.102 694.158 400.721 694.439 400.439C694.721 400.158 695.102 400 695.5 400V400ZM679 401.5C679 401.203 679.088 400.913 679.253 400.667C679.418 400.42 679.652 400.228 679.926 400.114C680.2 400.001 680.502 399.971 680.793 400.029C681.084 400.087 681.351 400.23 681.561 400.439C681.77 400.649 681.913 400.916 681.971 401.207C682.029 401.498 681.999 401.8 681.886 402.074C681.772 402.348 681.58 402.582 681.333 402.747C681.087 402.912 680.797 403 680.5 403C680.102 403 679.721 402.842 679.439 402.561C679.158 402.279 679 401.898 679 401.5V401.5ZM680.5 418C680.203 418 679.913 417.912 679.667 417.747C679.42 417.582 679.228 417.348 679.114 417.074C679.001 416.8 678.971 416.498 679.029 416.207C679.087 415.916 679.23 415.649 679.439 415.439C679.649 415.23 679.916 415.087 680.207 415.029C680.498 414.971 680.8 415.001 681.074 415.114C681.348 415.228 681.582 415.42 681.747 415.667C681.912 415.913 682 416.203 682 416.5C682 416.898 681.842 417.279 681.561 417.561C681.279 417.842 680.898 418 680.5 418ZM688 412C687.407 412 686.827 411.824 686.333 411.494C685.84 411.165 685.455 410.696 685.228 410.148C685.001 409.6 684.942 408.997 685.058 408.415C685.173 407.833 685.459 407.298 685.879 406.879C686.298 406.459 686.833 406.173 687.415 406.058C687.997 405.942 688.6 406.001 689.148 406.228C689.696 406.455 690.165 406.84 690.494 407.333C690.824 407.827 691 408.407 691 409C691 409.796 690.684 410.559 690.121 411.121C689.559 411.684 688.796 412 688 412ZM695.5 418C695.203 418 694.913 417.912 694.667 417.747C694.42 417.582 694.228 417.348 694.114 417.074C694.001 416.8 693.971 416.498 694.029 416.207C694.087 415.916 694.23 415.649 694.439 415.439C694.649 415.23 694.916 415.087 695.207 415.029C695.498 414.971 695.8 415.001 696.074 415.114C696.348 415.228 696.582 415.42 696.747 415.667C696.912 415.913 697 416.203 697 416.5C697 416.898 696.842 417.279 696.561 417.561C696.279 417.842 695.898 418 695.5 418Z" fill="white"/>
<rect width="55" height="55" transform="translate(877 289)" fill="#0F62FE"/>
<rect width="24" height="24" transform="translate(893 304)" fill="white" fill-opacity="0.01" style="mix-blend-mode:multiply"/>
<path d="M915.043 314.895L906.105 305.957C905.8 305.652 905.4 305.5 905 305.5C904.6 305.5 904.2 305.652 903.895 305.957L894.957 314.895C894.652 315.2 894.5 315.6 894.5 316C894.5 316.4 894.652 316.8 894.957 317.105L903.895 326.042C904.2 326.348 904.6 326.5 905 326.5C905.4 326.5 905.8 326.348 906.105 326.043L915.042 317.106C915.348 316.8 915.5 316.4 915.5 316C915.5 315.6 915.348 315.2 915.043 314.895ZM905 325.027L895.974 316L905 306.973L914.027 316L905 325.027Z" fill="white"/>
<rect width="55" height="55" transform="translate(877 382)" fill="#0F62FE"/>
<rect width="24" height="24" transform="translate(892 397)" fill="white" fill-opacity="0.01" style="mix-blend-mode:multiply"/>
<path d="M914.043 407.895L905.105 398.957C904.8 398.652 904.4 398.5 904 398.5C903.6 398.5 903.2 398.652 902.895 398.957L893.957 407.895C893.652 408.2 893.5 408.6 893.5 409C893.5 409.4 893.652 409.8 893.957 410.105L902.895 419.042C903.2 419.348 903.6 419.5 904 419.5C904.4 419.5 904.8 419.348 905.105 419.043L914.042 410.106C914.348 409.8 914.5 409.4 914.5 409C914.5 408.6 914.348 408.2 914.043 407.895ZM904 418.027L894.974 409L904 399.973L913.027 409L904 418.027Z" fill="white"/>
<rect width="55" height="55" transform="translate(963 289)" fill="#0F62FE"/>
<rect width="24" height="24" transform="translate(979 304)" fill="white" fill-opacity="0.01" style="mix-blend-mode:multiply"/>
<path d="M1001.04 314.895L992.105 305.957C991.8 305.652 991.4 305.5 991 305.5C990.6 305.5 990.2 305.652 989.895 305.957L980.957 314.895C980.652 315.2 980.5 315.6 980.5 316C980.5 316.4 980.652 316.8 980.957 317.105L989.895 326.042C990.2 326.348 990.6 326.5 991 326.5C991.4 326.5 991.8 326.348 992.105 326.043L1001.04 317.106C1001.35 316.8 1001.5 316.4 1001.5 316C1001.5 315.6 1001.35 315.2 1001.04 314.895ZM991 325.027L981.974 316L991 306.973L1000.03 316L991 325.027Z" fill="white"/>
<rect width="55" height="55" transform="translate(963 382)" fill="#0F62FE"/>
<rect width="24" height="24" transform="translate(978 397)" fill="white" fill-opacity="0.01" style="mix-blend-mode:multiply"/>
<path d="M1000.04 407.895L991.105 398.957C990.8 398.652 990.4 398.5 990 398.5C989.6 398.5 989.2 398.652 988.895 398.957L979.957 407.895C979.652 408.2 979.5 408.6 979.5 409C979.5 409.4 979.652 409.8 979.957 410.105L988.895 419.042C989.2 419.348 989.6 419.5 990 419.5C990.4 419.5 990.8 419.348 991.105 419.043L1000.04 410.106C1000.35 409.8 1000.5 409.4 1000.5 409C1000.5 408.6 1000.35 408.2 1000.04 407.895ZM990 418.027L980.974 409L990 399.973L999.027 409L990 418.027Z" fill="white"/>
<defs>
<clipPath id="clip0_2_1397">
<rect width="208" height="48" fill="white" transform="translate(50 208)"/>
</clipPath>
<clipPath id="clip1_2_1397">
<rect width="192" height="48" fill="white" transform="translate(313 206)"/>
</clipPath>
<clipPath id="clip2_2_1397">
<rect width="366" height="55" fill="white" transform="translate(24 140)"/>
</clipPath>
<clipPath id="clip3_2_1397">
<rect width="511" height="48" fill="white" transform="translate(568 140)"/>
</clipPath>
<clipPath id="clip4_2_1397">
<rect width="24" height="24" fill="white" transform="translate(584 152)"/>
</clipPath>
<clipPath id="clip5_2_1397">
<rect width="192" height="48" fill="white" transform="translate(597 209)"/>
</clipPath>
<clipPath id="clip6_2_1397">
<rect width="208" height="48" fill="white" transform="translate(844 208)"/>
</clipPath>
</defs>
</svg>
