<svg xmlns:xlink="http://www.w3.org/1999/xlink" xmlns="http://www.w3.org/2000/svg" viewBox="0 0 117 108" width="300" height="300"><title>Logotype_RH_OpenShift_wLogo_RGB_Black</title><path fill="#A30000" d="M33.9,48.5l-18.7,6.8c0.2,3,0.7,6,1.5,8.9l17.8-6.5C33.8,54.7,33.6,51.6,33.9,48.5"></path><path fill="#A30000" d="M116.6,27.8c-1.3-2.7-2.8-5.3-4.6-7.8l-18.7,6.8c2.2,2.2,4,4.7,5.5,7.4L116.6,27.8z"></path><path fill="#CC0000" d="M75.4,22.5c3.8,1.8,7.2,4.2,10.1,7.2l18.7-6.8C87.1-1.2,53.7-6.8,29.6,10.4C14.3,21.3,5.9,39.4,7.3,58.2L26,51.3c1.4-19.1,18.1-33.5,37.2-32C67.4,19.6,71.6,20.7,75.4,22.5"></path><path fill="#CC0000" d="M17.8,63.7L0,70.2c1.6,6.5,4.5,12.7,8.4,18.1L27,81.6C22.3,76.7,19.1,70.5,17.8,63.7"></path><path fill="#CC0000" d="M95.4,56.7c-0.3,4.2-1.4,8.2-3.1,12C84.1,86.1,63.5,93.6,46,85.5c-3.8-1.8-7.2-4.2-10.1-7.2l-18.7,6.8c5.3,7.5,12.5,13.5,20.8,17.4c26.8,12.5,58.7,0.9,71.2-25.9c3.9-8.3,5.6-17.6,4.8-26.7L95.4,56.7z"></path><path fill="#CC0000" d="M100.1,33.8l-17.8,6.5c3.3,6,4.9,12.8,4.4,19.6l18.7-6.8C104.8,46.4,103,39.9,100.1,33.8"></path><path fill="#820000" d="M33.8,52.2c0-1.3,0-2.5,0.1-3.8l-18.7,6.8c0.1,1.2,0.2,2.4,0.4,3.6L33.8,52.2z"></path><path fill="#820000" d="M113.9,22.8c-0.6-1-1.2-1.9-1.9-2.8l-18.7,6.8c0.8,0.8,1.6,1.7,2.3,2.7L113.9,22.8z"></path><path fill="#A30000" d="M17.2,85.2c1.4,2,3,4,4.8,5.8l20.3-7.4c-2.3-1.5-4.5-3.2-6.4-5.2L17.2,85.2z M114.1,49.9l-18.7,6.8c-0.2,2.7-0.7,5.4-1.6,8l20.3-7.4C114.3,54.8,114.3,52.3,114.1,49.9"></path></svg>