<?xml version="1.0" encoding="UTF-8"?>
<!-- Do not edit this file with editors other than draw.io -->
<!DOCTYPE svg PUBLIC "-//W3C//DTD SVG 1.1//EN" "http://www.w3.org/Graphics/SVG/1.1/DTD/svg11.dtd">
<svg xmlns="http://www.w3.org/2000/svg" style="background: #ffffff; background-color: #ffffff; color-scheme: light;" xmlns:xlink="http://www.w3.org/1999/xlink" version="1.1" width="264px" height="264px" viewBox="-0.5 -0.5 264 264" content="&lt;mxfile host=&quot;Electron&quot; agent=&quot;Mozilla/5.0 (Macintosh; Intel Mac OS X 10_15_7) AppleWebKit/537.36 (KHTML, like Gecko) draw.io/26.1.1 Chrome/132.0.6834.210 Electron/34.3.3 Safari/537.36&quot; version=&quot;26.1.1&quot; scale=&quot;1&quot; border=&quot;0&quot;&gt;&#10;  &lt;diagram name=&quot;Page-1&quot; id=&quot;rT5DFvYZ6heaukvx5moM&quot;&gt;&#10;    &lt;mxGraphModel dx=&quot;1194&quot; dy=&quot;878&quot; grid=&quot;0&quot; gridSize=&quot;10&quot; guides=&quot;1&quot; tooltips=&quot;1&quot; connect=&quot;1&quot; arrows=&quot;1&quot; fold=&quot;1&quot; page=&quot;1&quot; pageScale=&quot;1&quot; pageWidth=&quot;827&quot; pageHeight=&quot;1169&quot; background=&quot;none&quot; math=&quot;0&quot; shadow=&quot;0&quot;&gt;&#10;      &lt;root&gt;&#10;        &lt;mxCell id=&quot;0&quot; /&gt;&#10;        &lt;mxCell id=&quot;1&quot; parent=&quot;0&quot; /&gt;&#10;        &lt;mxCell id=&quot;TkTwnn2FN_G-Vh6oo0C2-1&quot; value=&quot;&quot; style=&quot;image;aspect=fixed;html=1;points=[];align=center;fontSize=12;image=img/lib/azure2/containers/Azure_Red_Hat_OpenShift.svg;&quot; vertex=&quot;1&quot; parent=&quot;1&quot;&gt;&#10;          &lt;mxGeometry x=&quot;242&quot; y=&quot;222&quot; width=&quot;264&quot; height=&quot;264&quot; as=&quot;geometry&quot; /&gt;&#10;        &lt;/mxCell&gt;&#10;      &lt;/root&gt;&#10;    &lt;/mxGraphModel&gt;&#10;  &lt;/diagram&gt;&#10;&lt;/mxfile&gt;&#10;"><defs><style type="text/css">@font-face {font-family: "IBM Plex Sans";src: url("fonts/IBMPlexSans-Regular.woff")}&#xa;</style></defs><rect fill="#ffffff" width="100%" height="100%" x="0" y="0" style="fill: rgb(255, 255, 255);"/><g><g data-cell-id="0"><g data-cell-id="1"><g data-cell-id="TkTwnn2FN_G-Vh6oo0C2-1"><g><g><svg viewBox="0 0 17.8 16.339" height="264" width="264" xmlns="http://www.w3.org/2000/svg" x="-0.5" y="-0.5" style="font-family: initial;">&#xa;	<path fill="#c32034" d="M5.167 7.338L2.31 8.381a7.172 7.172 0 0 0 .233 1.361l2.71-.981a5.607 5.607 0 0 1-.086-1.423M17.8 4.171a8.8 8.8 0 0 0-.687-1.177l-2.861 1.042a5.814 5.814 0 0 1 .848 1.128c-.014-.012 2.7-.993 2.7-.993z"/>&#xa;	<path fill="#db212f" d="M11.512 3.361a5.358 5.358 0 0 1 1.545 1.1l2.858-1.042A8.16 8.16 0 0 0 1.139 8.805L4 7.763a5.24 5.24 0 0 1 .478-1.84 5.3 5.3 0 0 1 7.034-2.562"/>&#xa;	<path fill="#ea2227" d="M2.714 9.658L0 10.639a8.5 8.5 0 0 0 1.28 2.772l2.845-1.04a5.366 5.366 0 0 1-1.411-2.71"/>&#xa;	<path fill="#db212f" d="M14.56 8.579a5.514 5.514 0 0 1-.479 1.84 5.3 5.3 0 0 1-7.05 2.562 5.358 5.358 0 0 1-1.545-1.1L2.641 12.92a8.064 8.064 0 0 0 3.188 2.651 8.158 8.158 0 0 0 11.588-8.034z"/>&#xa;	<path fill="#ea2227" d="M15.262 5.088l-2.71.981a5.3 5.3 0 0 1 .662 2.992l2.845-1.042a8.26 8.26 0 0 0-.8-2.931"/>&#xa;	<path fill="#ad213a" d="M2.317 8.371l2.845-1.03-.012.564L2.4 8.924zm11.932-4.352l2.894-.981.307.442-2.808.98c-.013.013-.393-.441-.393-.441z"/>&#xa;	<path fill="#ba2034" d="M2.626 12.915l2.845-1.018.858.8-2.992 1.1c.013.001-.711-.882-.711-.882zm14.83-5.356l-2.894 1.03-.208 1.141 3.09-1.08c-.013-.012.012-1.091.012-1.091z"/>&#xa;</svg></g></g></g></g></g></g></svg>